<?xml version="1.0" encoding="UTF-8"?><svg id="Capa_2" xmlns="http://www.w3.org/2000/svg" viewBox="0 0 136 136"><defs><style>.cls-1{fill:#4a5d75;}.cls-2{fill:#323442;}.cls-3{fill:#9480b1;}.cls-4{fill:#1c1c1c;}.cls-5{fill:#303036;}.cls-6{fill:#5d5398;}.cls-7{fill:#e2d2da;}.cls-8{fill:#3b4553;}.cls-9{fill:#b3a1c5;}.cls-10{fill:#82749d;}.cls-11{fill:#454f5f;}</style></defs><g id="Capa_1-2"><g><path class="cls-6" d="M136,68c0,8.78-1.66,17.16-4.69,24.87-.27,.7-.56,1.39-.86,2.07-6.2,14.35-17.19,26.14-30.96,33.35-.91,.48-1.83,.93-2.76,1.37-1.08,.5-2.18,.98-3.29,1.43-7.86,3.17-16.44,4.92-25.44,4.92-1.52,0-3.03-.05-4.52-.15-1.08-.07-2.15-.17-3.22-.29-1.2-.14-2.38-.3-3.55-.5h0c-15-2.5-28.34-9.92-38.3-20.54-.76-.81-1.5-1.64-2.22-2.49C6.09,100.17,0,84.8,0,68,0,30.45,30.45,0,68,0c16.2,0,31.07,5.66,42.75,15.12h0c.63,.51,1.26,1.04,1.87,1.57h0c6.96,6.06,12.68,13.5,16.71,21.91,.53,1.1,1.03,2.21,1.49,3.34,3.33,8.03,5.17,16.83,5.17,26.06Z"/><g><path class="cls-10" d="M32.56,96.99c0-1.1-.89-1.99-1.99-1.99-2.64,.09-2.64,3.89,0,3.98,1.1,0,1.99-.89,1.99-1.99Z"/><path class="cls-10" d="M15.88,83.57c0-1.1-.89-1.99-1.99-1.99-2.64,.09-2.64,3.89,0,3.98,1.1,0,1.99-.89,1.99-1.99Z"/><path class="cls-10" d="M37.89,78.71c0-1.1-.89-1.99-1.99-1.99-2.64,.09-2.64,3.89,0,3.98,1.1,0,1.99-.89,1.99-1.99Z"/><path class="cls-10" d="M45.84,87.41c0-1.1-.89-1.99-1.99-1.99-2.64,.09-2.64,3.89,0,3.98,1.1,0,1.99-.89,1.99-1.99Z"/><path class="cls-10" d="M58.58,103.25c0-1.1-.89-1.99-1.99-1.99-2.64,.09-2.64,3.89,0,3.98,1.1,0,1.99-.89,1.99-1.99Z"/><path class="cls-10" d="M43.85,115.09c0-1.1-.89-1.99-1.99-1.99-2.64,.09-2.64,3.89,0,3.98,1.1,0,1.99-.89,1.99-1.99Z"/><path class="cls-10" d="M20.1,112.56c0,1-.74,1.82-1.69,1.97-.76-.81-1.5-1.64-2.22-2.49,.62-2.22,3.87-1.81,3.91,.52Z"/><path class="cls-10" d="M51.94,125.79c0-1.1-.89-1.99-1.99-1.99-2.64,.09-2.64,3.89,0,3.98,1.1,0,1.99-.89,1.99-1.99Z"/><path class="cls-10" d="M80.14,114.55c0-1.1-.89-1.99-1.99-1.99-2.64,.09-2.64,3.89,0,3.98,1.1,0,1.99-.89,1.99-1.99Z"/><path class="cls-10" d="M86.79,125.79c0-1.1-.89-1.99-1.99-1.99-2.64,.09-2.64,3.89,0,3.98,1.1,0,1.99-.89,1.99-1.99Z"/><path class="cls-10" d="M72.78,132.12c0-1.1-.89-1.99-1.99-1.99-2.64,.09-2.64,3.89,0,3.98,1.1,0,1.99-.89,1.99-1.99Z"/><path class="cls-10" d="M97.96,97.22c0-1.1-.89-1.99-1.99-1.99-2.64,.09-2.64,3.89,0,3.98,1.1,0,1.99-.89,1.99-1.99Z"/><path class="cls-10" d="M111.56,110.56c0-1.1-.89-1.99-1.99-1.99-2.64,.09-2.64,3.89,0,3.98,1.1,0,1.99-.89,1.99-1.99Z"/><path class="cls-10" d="M130.45,94.94c-1.27,.88-3.12-.11-3.09-1.66,.05-2.39,3.42-2.72,3.94-.41l-.86,2.07Z"/><path class="cls-10" d="M123.92,76.22c0-1.1-.89-1.99-1.99-1.99-2.64,.09-2.64,3.89,0,3.98,1.1,0,1.99-.89,1.99-1.99Z"/><path class="cls-10" d="M130.45,64.87c0-1.1-.89-1.99-1.99-1.99-2.64,.09-2.64,3.89,0,3.98,1.1,0,1.99-.89,1.99-1.99Z"/><path class="cls-10" d="M102.65,62.88c0-1.1-.89-1.99-1.99-1.99-2.64,.09-2.64,3.89,0,3.98,1.1,0,1.99-.89,1.99-1.99Z"/><path class="cls-10" d="M63.43,79.3c0-1.1-.89-1.99-1.99-1.99-2.64,.09-2.64,3.89,0,3.98,1.1,0,1.99-.89,1.99-1.99Z"/><path class="cls-10" d="M8.62,62.99c0-1.1-.89-1.99-1.99-1.99-2.64,.09-2.64,3.89,0,3.98,1.1,0,1.99-.89,1.99-1.99Z"/><path class="cls-10" d="M21.08,53.07c0-1.1-.89-1.99-1.99-1.99-2.64,.09-2.64,3.89,0,3.98,1.1,0,1.99-.89,1.99-1.99Z"/><path class="cls-10" d="M19.09,35.73c0-1.1-.89-1.99-1.99-1.99-2.64,.09-2.64,3.89,0,3.98,1.1,0,1.99-.89,1.99-1.99Z"/><path class="cls-10" d="M31.74,30.15c0-1.1-.89-1.99-1.99-1.99-2.64,.09-2.64,3.89,0,3.98,1.1,0,1.99-.89,1.99-1.99Z"/><path class="cls-10" d="M47.83,9.77c0-1.1-.89-1.99-1.99-1.99-2.64,.09-2.64,3.89,0,3.98,1.1,0,1.99-.89,1.99-1.99Z"/><path class="cls-10" d="M53.93,23.43c0-1.1-.89-1.99-1.99-1.99-2.64,.09-2.64,3.89,0,3.98,1.1,0,1.99-.89,1.99-1.99Z"/><path class="cls-10" d="M67.02,15.11c0-1.1-.89-1.99-1.99-1.99-2.64,.09-2.64,3.89,0,3.98,1.1,0,1.99-.89,1.99-1.99Z"/><path class="cls-10" d="M78.15,5.79c0-1.1-.89-1.99-1.99-1.99-2.64,.09-2.64,3.89,0,3.98,1.1,0,1.99-.89,1.99-1.99Z"/><path class="cls-10" d="M64.91,35.73c0-1.1-.89-1.99-1.99-1.99-2.64,.09-2.64,3.89,0,3.98,1.1,0,1.99-.89,1.99-1.99Z"/><path class="cls-10" d="M70.79,51.08c0-1.1-.89-1.99-1.99-1.99-2.64,.09-2.64,3.89,0,3.98,1.1,0,1.99-.89,1.99-1.99Z"/><path class="cls-10" d="M83.55,39.56c0-1.1-.89-1.99-1.99-1.99-2.64,.09-2.64,3.89,0,3.98,1.1,0,1.99-.89,1.99-1.99Z"/><path class="cls-10" d="M91.96,19.44c0-1.1-.89-1.99-1.99-1.99-2.64,.09-2.64,3.89,0,3.98,1.1,0,1.99-.89,1.99-1.99Z"/><path class="cls-10" d="M110.75,15.12h0c-2.69,0-2.76,3.87-.07,3.98,1.25,.02,2.22-1.19,1.95-2.41h0l-1.87-1.57Z"/><path class="cls-10" d="M106.6,33.73c0-1.1-.89-1.99-1.99-1.99-2.64,.09-2.64,3.89,0,3.98,1.1,0,1.99-.89,1.99-1.99Z"/><path class="cls-10" d="M113.55,49.3c0-1.1-.89-1.99-1.99-1.99-2.64,.09-2.64,3.89,0,3.98,1.1,0,1.99-.89,1.99-1.99Z"/><path class="cls-10" d="M130.83,41.94c-1.19,1.33-3.47,.46-3.46-1.35,0-1.09,.88-1.98,1.97-1.99,.53,1.1,1.03,2.21,1.49,3.34Z"/></g><g id="Telescope"><g><g><path class="cls-8" d="M89.59,82.84l17.47,10.09c1.22,.71,2.79,.29,3.49-.94l2.62-4.54c.71-1.22,.29-2.79-.93-3.49l-17.47-10.09-5.18,8.97Z"/><path class="cls-11" d="M91.04,80.34l15.4,8.89c1.14,.66,2.59,.27,3.25-.87l2.54-4.41-17.46-10.08-3.73,6.47Z"/><path class="cls-1" d="M107.26,86.08l-8.59-4.96c-1.7-1.05-.25-3.56,1.51-2.61l8.59,4.96c.72,.42,.97,1.34,.55,2.06s-1.34,.97-2.06,.55Z"/></g><g><path class="cls-8" d="M62.92,70.19l25.51,14.73c1.78,1.03,4.07,.42,5.1-1.37l3.83-6.63c1.03-1.79,.42-4.07-1.36-5.1l-25.51-14.73-7.56,13.1Z"/><path class="cls-11" d="M65.03,66.54l22.48,12.98c1.66,.96,3.78,.39,4.74-1.27l3.71-6.43-25.48-14.71-5.45,9.44Z"/><path class="cls-1" d="M88.72,74.92l-12.54-7.24c-2.47-1.55-.38-5.19,2.2-3.82l12.54,7.24c1.05,.61,1.42,1.96,.81,3.01-.61,1.05-1.96,1.42-3.01,.81Z"/></g><g><path class="cls-8" d="M32.13,55.92l29.31,16.92c2.5,1.44,5.7,.59,7.14-1.91l5.37-9.29c1.44-2.5,.59-5.7-1.91-7.15l-29.31-16.92-10.6,18.35Z"/><path class="cls-11" d="M35.09,50.8l25.06,14.47c2.33,1.34,5.3,.55,6.64-1.78l5.21-9.02-29.27-16.9-7.64,13.23Z"/><path class="cls-1" d="M61.84,58.82l-17.58-10.15c-3.46-2.19-.55-7.26,3.09-5.35l17.58,10.15c1.48,.85,1.98,2.74,1.13,4.22-.85,1.48-2.74,1.98-4.22,1.13Z"/></g><g><path class="cls-5" d="M109.8,98.68c1.25,.74,2.93,.31,3.67-.98l6.11-10.58c.74-1.25,.3-2.94-.98-3.67-1.27-.75-2.95-.28-3.67,.98l-6.11,10.58c-.75,1.27-.28,2.94,.98,3.66Z"/><path class="cls-4" d="M111.69,98.98c.72-.15,1.37-.6,1.77-1.28l6.11-10.58c.39-.67,.46-1.46,.23-2.17-.73,.15-1.4,.62-1.77,1.28l-6.11,10.58c-.4,.69-.46,1.47-.23,2.17Z"/><path class="cls-2" d="M108.6,97.22c.73-.14,1.4-.59,1.8-1.29l6.11-10.58c.39-.67,.46-1.49,.22-2.21-.75,.15-1.42,.62-1.8,1.29l-6.11,10.58c-.4,.7-.46,1.49-.22,2.21Z"/></g><g><path class="cls-9" d="M30.35,62.29c2.42,1.42,5.67,.59,7.09-1.9l11.81-20.46c.7-1.21,.87-2.62,.52-3.94-.9-3.52-5.26-5.02-8.14-2.8-.5,.38-.95,.86-1.29,1.42-.06,.09-11.82,20.48-11.89,20.59-1.45,2.47-.55,5.7,1.9,7.09Z"/><path class="cls-3" d="M34.02,62.88c1.39-.29,2.66-1.15,3.42-2.48l11.81-20.46c.75-1.29,.89-2.82,.44-4.21-1.4,.29-2.7,1.21-3.42,2.48l-11.81,20.46c-.76,1.33-.88,2.84-.44,4.21Z"/><path class="cls-7" d="M28.04,59.47c1.42-.28,2.71-1.15,3.49-2.49l11.81-20.46c.75-1.29,.9-2.89,.42-4.27-1.45,.28-2.74,1.19-3.49,2.5l-11.81,20.46c-.78,1.35-.89,2.89-.42,4.27Z"/></g></g><g><g><path class="cls-3" d="M82.44,83.15c-1.81,5.02-16.77,46.6-18.96,52.7-2.27-.15-4.54-.41-6.77-.79l19.23-53.45c.11-.28,.29-.86,.44-1.12,.2-.38,.49-.73,.82-1.01,.27-.22,.57-.41,.89-.53,.82-.34,1.79-.32,2.6,.05,1.55,.67,2.36,2.56,1.76,4.15Z"/><path class="cls-9" d="M79.23,82.78c-5.52,15.54-13.39,37.22-18.97,52.78-1.2-.14-2.38-.3-3.55-.5l19.23-53.45c.11-.28,.29-.86,.44-1.12,.2-.38,.49-.73,.82-1.01,.14-.12,.31-.23,.47-.33,1.25,.72,1.91,2.2,1.57,3.63Z"/><path class="cls-7" d="M74.09,97.15l-8.24,22.89c-.18,.51-.66,.82-1.17,.82-.83,.01-1.48-.87-1.17-1.67l8.24-22.89c.6-1.52,2.85-.73,2.34,.84Z"/></g><g><path class="cls-3" d="M99.49,128.29c-1.97,1.03-3.99,1.96-6.05,2.8-1.36-3.77-13.15-36.55-14.12-39.24l-1.66-4.62-1.46-4.07c-.48-1.3-.06-2.81,1-3.67,.27-.22,.57-.41,.89-.53,.82-.34,1.79-.31,2.6,.05,.69,.31,1.27,.86,1.6,1.54,.06,.12,.11,.24,.16,.37l.26,.71,16.79,46.67Z"/><path class="cls-9" d="M96.73,129.65c-1.08,.5-2.18,.98-3.29,1.43l-12.16-33.8c1.75-.8,3.84,.09,4.49,1.9,1.85,5.12,9,25.01,10.96,30.46Z"/><path class="cls-7" d="M84.16,102.07l8.24,22.89c.18,.51,.66,.82,1.17,.82,.83,.01,1.48-.87,1.17-1.67l-8.24-22.89c-.6-1.52-2.85-.73-2.34,.84Z"/></g><g><path class="cls-4" d="M73.84,77.31c-.01,2.97,2.42,5.48,5.47,5.48,5.76-.07,7.54-7.69,2.52-10.34-3.55-1.91-8.05,.8-8,4.86Z"/><path class="cls-5" d="M73.84,77.31c0,.91,.22,1.77,.62,2.52,4.72,2.44,9.82-2.66,7.38-7.38-3.55-1.91-8.05,.81-8,4.86Z"/><path class="cls-2" d="M75.97,75.73c0-1.37,1.11-2.48,2.48-2.48,3.29,.13,3.29,4.83,0,4.96-1.37,0-2.48-1.11-2.48-2.48Z"/></g></g></g></g></g></svg>