<?xml version="1.0" encoding="UTF-8"?><svg id="Capa_2" xmlns="http://www.w3.org/2000/svg" viewBox="0 0 69 62"><defs><style>.cls-1{fill:#01194a;}</style></defs><g id="Capa_1-2"><g><path class="cls-1" d="M17.83,26.15H3.17c-1.86,0-3.19,1.48-3.02,3.32l-.15,28.81c0,.08,0,.16,.02,.25,.26,1.91,2.02,3.47,3.94,3.47H22.67c1.83,0,3.12-1.43,3.01-3.22l-4.06-30.01s-.04,.02-.06,.02c-.58-1.51-2.1-2.64-3.73-2.64Z"/><path class="cls-1" d="M68.97,38.58c-.18-2.18-1.29-3.78-2.72-4.92,1.08-.77,1.73-1.89,1.86-3.3,.18-1.89-.31-4.85-2.3-6.99-1.01-1.08-2.81-2.37-5.68-2.37h-13.34c-.03-1.93-.03-4.96,.11-7.65,.2-3.88-1.97-8.62-4.12-11.1-1.13-1.31-2.27-2.04-3.41-2.18-.36-.05-.74-.07-1.12-.07-2.46,0-5.37,.98-5.94,3.14-.25,.94-.02,1.93,.23,2.97,.33,1.39,.74,3.12,.31,5.53-.73,4.1-6.92,14.01-8.92,15.83l4.18,30.87c2.75,1.07,9.1,3.39,12.44,3.39h16.69c1.14,0,4.93-.25,6.08-3.44,.55-1.54,.34-2.99-.19-4.23,0-.12-.01-.22-.01-.29,0-.03,0-.06,0-.09,2.08-.56,3.43-1.94,3.79-4,.43-2.48-.31-4.2-1.06-5.23,2.21-1.03,3.36-3.09,3.13-5.88Z"/></g></g></svg>