<?xml version="1.0" encoding="UTF-8"?><svg id="Capa_2" xmlns="http://www.w3.org/2000/svg" viewBox="0 0 136 136"><defs><style>.cls-1{fill:#fff;}.cls-2{fill:#e5bf50;}.cls-3{fill:#e4ecf5;}.cls-4{fill:#6db4d7;}.cls-5{fill:#a97d63;}.cls-6{fill:#ead18b;}.cls-7{fill:#9f425b;}.cls-8{fill:#bb8577;}.cls-9{fill:#c3485d;}.cls-10{fill:#524290;}.cls-11{fill:#d79633;}.cls-12{fill:#b3a1c5;}.cls-13{fill:#2f2a65;}.cls-14{fill:none;}.cls-15{fill:#665497;}.cls-16{fill:#629fb0;}.cls-17{fill:#8d6d5b;}.cls-18{fill:#d4aa94;}.cls-19{fill:#202c89;}.cls-20{fill:#ded1e2;}.cls-21{fill:#a0c3e6;}</style></defs><g id="Capa_1-2"><g><path class="cls-16" d="M136,68c0,33.17-23.76,60.8-55.18,66.79-.88,.17-1.76,.32-2.65,.45-3.32,.5-6.71,.75-10.16,.75-5.96,0-11.75-.77-17.26-2.21-1.8-.47-3.57-1.01-5.31-1.63C18.97,122.86,0,97.64,0,68c0-5.06,.55-10,1.6-14.74C8.34,22.79,35.51,0,68,0c8.3,0,16.26,1.49,23.61,4.21,25.92,9.6,44.39,34.53,44.39,63.79Z"/><path class="cls-4" d="M101.02,33.92c0,28.49-23.09,51.58-51.58,51.58-21.65,0-40.19-13.34-47.84-32.25C8.34,22.79,35.51,0,68,0c8.3,0,16.26,1.49,23.61,4.21,5.93,8.4,9.41,18.65,9.41,29.71Z"/><g><g><path class="cls-13" d="M54.11,17.72c.29-.75,1.25-.96,1.82-.39l5.17,5.17c4.29,4.29,2.69,12.86-3.59,19.14-6.28,6.28-14.85,7.88-19.14,3.59l-5.17-5.17c-.57-.57-.36-1.54,.39-1.82l14.4-5.48c.3-.11,.53-.35,.64-.64l5.48-14.4Z"/><path class="cls-10" d="M57.4,39.08c-1.22,1.19-3.14-.37-2.19-1.81,2.64-3.92,3.58-8.17,2.5-11.37-.25-.75,.15-1.56,.9-1.81,.75-.25,1.56,.15,1.81,.9,1.37,4.06,.26,9.52-3.02,14.09Z"/></g><g><path class="cls-10" d="M59.78,8.27l-9.61,25.26c-.13,.35-.41,.63-.76,.76l-25.26,9.61c-1.06,.4-2.1-.64-1.7-1.7l9.61-25.26c.13-.35,.41-.63,.76-.76L58.08,6.57c1.06-.4,2.1,.64,1.7,1.7Z"/><path class="cls-15" d="M53.49,14.25c-.15,.15-.34,.28-.55,.36l-15.68,5.97c-.81,.31-1.72-.1-2.03-.91-.31-.81,.1-1.72,.91-2.03l15.68-5.97c1.59-.6,2.86,1.41,1.68,2.59Z"/></g><g><path class="cls-13" d="M31.05,46.05l-5.31,5.31-1.82-1.82,5.56-5.56c.45-.45,1.22-.29,1.45,.31l.31,.82c.12,.33,.04,.69-.2,.94Z"/><path class="cls-13" d="M26.93,54.06c-1.53,1.55-4.12,1.6-5.71,0-3.64-3.93,1.77-9.34,5.71-5.71,1.55,1.52,1.58,4.15,0,5.71Z"/><path class="cls-13" d="M19.15,60.51c-.34-.08-.63-.25-.89-.51l-2.98-2.98c-1.01-1.01-.63-2.72,.71-3.21l3.83-1.41c.72-.26,1.52-.09,2.05,.45l.56,.56c.53,.53,.72,1.34,.45,2.05l-1.41,3.83c-.36,.99-1.4,1.45-2.32,1.21Z"/><path class="cls-10" d="M19.15,60.51c-.1-.38-.08-.78,.06-1.16l1.41-3.83c.37-.99,1.4-1.45,2.32-1.21,.1,.38,.08,.78-.06,1.16l-1.41,3.83c-.36,.99-1.4,1.45-2.32,1.21Z"/><path class="cls-10" d="M26.93,54.06c-.37,.37-.79,.65-1.24,.84-1.62-.36-2.16-2.32-1.29-3.94,.72-1.34,2.13-1.99,3.28-1.57,.77,1.51,.49,3.42-.76,4.67Z"/></g></g><g id="Person"><path class="cls-13" d="M90.96,111.89c-5.04,0-11.75-2.78-22.34-9.03l4.45-7.55c12.68,7.48,17.3,8.29,18.95,7.64,2.59-1.12,4.73-11.81,6.42-16.17l8.3,2.81c-3.36,9.46-4.6,22.36-15.79,22.3Z"/><g id="Hand"><path class="cls-17" d="M98.39,86.61c0,1.96,1.59,3.56,3.56,3.56h9.66c1.98,0,3.56-1.63,3.56-3.56,0-1.97-1.59-3.56-3.56-3.56h-9.66c-1.93,0-3.56,1.57-3.56,3.56Z"/><path class="cls-8" d="M99.98,85.02c0,1.96,1.59,3.56,3.56,3.56h9.66c.57,0,1.11-.13,1.59-.37,1.2-2.29-.58-5.2-3.18-5.15h-9.66c-.57,0-1.11,.14-1.59,.37-.24,.48-.37,1.02-.37,1.59Z"/></g><g id="Arm"><path class="cls-13" d="M49.17,106.04c-17.57,.12-22.88-8.68-25.29-23.93-.5-2.69-1.17-5.84-1.86-8.58l9.2,.78c3.78,17.13,2.02,24.72,24.12,22.64l.86,8.72c-2.53,.25-4.87,.37-7.03,.37Z"/></g><g id="Hand-2"><path class="cls-17" d="M30.22,77.24c-1.39,1.39-3.64,1.39-5.03,0l-6.83-6.83c-1.41-1.4-1.37-3.67,0-5.03,1.39-1.39,3.64-1.39,5.03,0l6.83,6.83c1.37,1.36,1.41,3.63,0,5.03Z"/><path class="cls-8" d="M30.22,74.98c-1.39,1.39-3.64,1.39-5.03,0l-6.83-6.83c-.4-.4-.69-.88-.86-1.38,.77-2.47,4.08-3.26,5.89-1.39l6.83,6.83c.4,.4,.69,.88,.86,1.39-.17,.51-.45,.98-.86,1.39Z"/></g><g id="Body"><path class="cls-13" d="M80.82,109.72v25.07c-11.7,2.25-24.26,1.33-35.39-2.63v-22.44c0-1.3,.14-2.57,.41-3.8,.73-3.34,2.41-6.34,4.73-8.68,11.18-11.12,30.15-3.32,30.24,12.47Z"/><path class="cls-15" d="M80.82,109.72v25.07c-9.8,1.9-20.55,1.53-30.08-1,.14-2.57-.37-25.89,.39-27.75,1.34-6.6,6.75-12.1,13.32-13.55,.44-.1,.88-.19,1.33-.26,.54,.08,1.07,.19,1.59,.32,7.81,1.87,13.51,9.16,13.45,17.18Z"/><path class="cls-10" d="M78.16,109.72v25.52c-8.98,1.38-18.77,.84-27.42-1.46,.14-2.57-.37-25.89,.39-27.75,1.3-6.39,6.41-11.77,12.72-13.4,.2-.05,.4-.1,.6-.15,.83,.19,1.63,.44,2.4,.74,6.73,2.57,11.36,9.23,11.31,16.5Z"/></g><g id="HEAD"><g id="Ears"><path class="cls-5" d="M53.73,78.15c.2,2.37-1.63,4.47-4.03,4.46h-3.41c-5.39-.13-5.39-8.36,0-8.49h3.41c2.23,0,4.03,1.81,4.03,4.03Z"/><path class="cls-5" d="M84,78.15c.2,2.37-1.63,4.47-4.03,4.46h-3.41c-5.39-.13-5.39-8.36,0-8.49h3.41c2.23,0,4.03,1.81,4.03,4.03Z"/><path class="cls-17" d="M55.16,78.36c0,.93-.76,1.69-1.69,1.69h-6.35c-.93,0-1.69-.76-1.69-1.69s.76-1.69,1.69-1.69h6.35c.93,0,1.69,.76,1.69,1.69Z"/><path class="cls-17" d="M80.82,78.36c0,.93-.76,1.69-1.69,1.69h-6.35c-.93,0-1.69-.76-1.69-1.69s.76-1.69,1.69-1.69h6.35c.93,0,1.69,.76,1.69,1.69Z"/></g><g id="Neck"><path class="cls-17" d="M67.37,89.23v4.22c.01,2.36-1.96,4.26-4.25,4.24-2.35,0-4.24-1.9-4.24-4.24v-4.22c-.04-2.74,2.68-4.82,5.31-4.11,1.85,.48,3.18,2.15,3.18,4.11Z"/><path class="cls-5" d="M67.37,89.23v4.22c0,1.98-1.35,3.64-3.18,4.11-1.83-.47-3.18-2.13-3.18-4.11v-4.22c0-1.98,1.35-3.64,3.18-4.11,1.85,.48,3.18,2.15,3.18,4.11Z"/><path class="cls-17" d="M67.37,89.23v3.89c-.99,.23-2.03,.35-3.09,.35-1.68,0-3.78,.07-5.4-.35v-3.89c-.04-2.74,2.68-4.82,5.31-4.11,1.85,.48,3.18,2.15,3.18,4.11Z"/><path class="cls-14" d="M67.37,89.23v4.22c.01,2.36-1.96,4.26-4.25,4.24-2.35,0-4.24-1.9-4.24-4.24v-4.22c-.04-2.74,2.68-4.82,5.31-4.11,1.85,.48,3.18,2.15,3.18,4.11Z"/></g><g id="Face"><path class="cls-5" d="M78.26,67.79v9.57c.03,7.73-6.36,14.01-13.98,13.98h-2.31c-7.72,0-13.98-6.26-13.98-13.98v-9.57c0-7.72,6.26-13.98,13.98-13.98h2.31c7.62-.03,14.01,6.24,13.98,13.98Z"/><path class="cls-8" d="M78.26,67.79v9.57c0,7.35-5.67,13.37-12.87,13.93-7.2-.56-12.88-6.58-12.88-13.93v-9.57c0-7.35,5.67-13.37,12.88-13.93,7.2,.56,12.87,6.59,12.87,13.93Z"/></g><path class="cls-17" d="M63.13,84.62c-1.75,0-3.34-.54-4.13-1.4-.46-.52,.3-1.23,.78-.72,1.22,1.4,5.49,1.39,6.71,0,.48-.5,1.25,.2,.78,.72-.8,.86-2.38,1.4-4.13,1.4Z"/><path class="cls-5" d="M65.45,79.83h-4.66c-.7-.01-.7-1.05,0-1.06h4.66c.7,.01,.7,1.05,0,1.06Z"/><g id="Eyes"><path class="cls-18" d="M59.38,74.59c0-1.15-.93-2.08-2.08-2.08-2.75,.1-2.75,4.05,0,4.16,1.15,0,2.08-.93,2.08-2.08Z"/><path class="cls-18" d="M71.02,74.59c0-1.15-.93-2.08-2.08-2.08-2.75,.1-2.75,4.05,0,4.16,1.15,0,2.08-.93,2.08-2.08Z"/><path class="cls-19" d="M59.24,75.37c0-1.07-.87-1.94-1.94-1.94-2.56,.09-2.56,3.78,0,3.87,1.07,0,1.94-.87,1.94-1.94Z"/><path class="cls-3" d="M58.66,75.41c.9-.94-.45-2.29-1.39-1.39-.9,.94,.45,2.29,1.39,1.39Z"/><path class="cls-19" d="M70.88,75.37c0-1.07-.87-1.94-1.94-1.94-2.56,.09-2.56,3.78,0,3.87,1.07,0,1.94-.87,1.94-1.94Z"/><path class="cls-3" d="M70.3,75.41c.9-.94-.45-2.29-1.39-1.39-.9,.94,.45,2.29,1.39,1.39Z"/></g></g><g id="Glasses"><g id="Glasses-2"><path class="cls-3" d="M73.84,71.81c-2.13-.92-5.5-.92-7.62,0-.49,.19-.81,.66-.81,1.18v2.85c.24,6.12,8.99,6.12,9.23,0v-2.85c0-.52-.32-.99-.81-1.18Z"/><path class="cls-15" d="M70.03,81c-2.84,0-5.15-2.31-5.15-5.15h1.07c.23,5.42,7.94,5.41,8.17,0h1.07c0,2.84-2.31,5.15-5.15,5.15Z"/><path class="cls-13" d="M75.18,75.85h-1.07v-2.85c0-.31-.18-.58-.47-.69-2-.87-5.24-.87-7.23,0-.28,.11-.47,.38-.47,.69v2.85h-1.07v-2.85c0-.75,.45-1.41,1.14-1.68,.85-.34,2.24-.74,4.01-.74s3.15,.4,4.01,.74c.69,.27,1.14,.93,1.14,1.68v2.85Z"/><path class="cls-3" d="M59.86,71.8c-2.11-.9-5.44-.9-7.55,0-.51,.2-.84,.69-.84,1.24v2.82c.24,6.12,8.99,6.12,9.23,0v-2.82c0-.55-.33-1.04-.84-1.24Z"/><path class="cls-15" d="M56.08,81c-2.84,0-5.15-2.31-5.15-5.15h1.07c.23,5.42,7.94,5.41,8.17,0h1.07c0,2.84-2.31,5.15-5.15,5.15Z"/><path class="cls-13" d="M61.23,75.85h-1.07v-2.82c0-.33-.2-.62-.5-.74-1.98-.85-5.19-.85-7.16,0-.3,.12-.5,.41-.5,.74v2.82h-1.07v-2.82c0-.77,.46-1.45,1.18-1.73,.85-.33,2.23-.72,3.97-.72s3.12,.39,3.97,.72c.72,.28,1.18,.96,1.18,1.73v2.82Z"/><path class="cls-13" d="M64.94,74.81c-.37-.39-3.37-.39-3.75,0,0,0,.06-.06,.06-.22l-1.07,.03c.09-.98,1.35-1.15,2.87-1.17,2.52,0,2.89,.72,2.89,1.16h-1.07c0,.14,.06,.21,.06,.21Z"/><path class="cls-13" d="M78.26,72.72h-3.61c-.29,0-.53-.24-.53-.53s.24-.53,.53-.53h3.61c.7,.01,.7,1.05,0,1.07Z"/><path class="cls-13" d="M51.47,72.72h-3.61c-.7-.01-.7-1.05,0-1.07h3.61c.7,.01,.7,1.05,0,1.07Z"/></g><path class="cls-21" d="M59.3,74.57c0-1.15-.93-2.09-2.09-2.09-2.76,.1-2.76,4.07,0,4.17,1.15,0,2.09-.93,2.09-2.09Z"/><path class="cls-21" d="M70.99,74.57c0-1.15-.93-2.09-2.09-2.09-2.76,.1-2.76,4.07,0,4.17,1.15,0,2.09-.93,2.09-2.09Z"/><path class="cls-19" d="M59.16,75.35c0-1.07-.87-1.94-1.94-1.94-2.57,.09-2.57,3.8,0,3.89,1.07,0,1.94-.87,1.94-1.94Z"/><path class="cls-3" d="M58.57,75.39c.9-.95-.45-2.3-1.4-1.4-.9,.95,.45,2.3,1.4,1.4Z"/><path class="cls-19" d="M70.85,75.35c0-1.07-.87-1.94-1.94-1.94-2.57,.09-2.57,3.8,0,3.89,1.07,0,1.94-.87,1.94-1.94Z"/><path class="cls-3" d="M70.27,75.39c.9-.95-.45-2.3-1.4-1.4-.9,.95,.45,2.3,1.4,1.4Z"/></g></g><g><g><path class="cls-20" d="M125.36,45.28c1.76,1.73,1.79,4.67,0,6.44l-27.41,27.41c-.45,.45-.96,.78-1.51,1-1.68,.67-3.61,.32-4.93-1-1.75-1.72-1.77-4.6-.09-6.35,.02-.05,27.45-27.44,27.5-27.5,1.76-1.79,4.7-1.76,6.44,0Z"/><path class="cls-12" d="M126.69,48.26c.07,1.24-.37,2.51-1.33,3.46l-27.41,27.41c-.92,.93-2.18,1.4-3.46,1.33-.07-1.21,.38-2.48,1.24-3.37,0-.02,27.46-27.46,27.5-27.5,.95-.95,2.21-1.39,3.46-1.33Z"/><path class="cls-1" d="M122.45,43.96c.09,1.27-.36,2.56-1.32,3.52l-27.41,27.41c-.92,.93-2.24,1.42-3.52,1.32-.08-1.25,.36-2.51,1.23-3.43,0-.02,27.46-27.46,27.5-27.5,.97-.96,2.24-1.41,3.52-1.32Z"/></g><rect class="cls-7" x="104.57" y="58.53" width="3.5" height="3.11" transform="translate(-11.35 92.78) rotate(-45)"/><rect class="cls-9" x="106.06" y="57.91" width="1.75" height="3.11" transform="translate(-10.73 93.03) rotate(-45)"/><g><g><path class="cls-11" d="M117.77,65.56c.38-.11,3.42-1.03,3.71-1.12,.31-.09,.3-.53,0-.61l-5.55-1.49-1.36,5.08,5.55,1.49c.31,.08,.53-.29,.31-.52-.2-.21-2.39-2.55-2.65-2.82"/><path class="cls-6" d="M115.52,66.86l4.27,1.14c.09,.02,.18,0,.24-.03l-2.26-2.41,3.16-.96c-.04-.07-.1-.12-.2-.15l-4.27-1.14-.95,3.55Z"/></g><g><path class="cls-11" d="M111.81,71.55c.29,.27,2.6,2.44,2.82,2.65,.23,.22,.61,0,.52-.31l-1.49-5.55-5.08,1.36,1.49,5.55c.08,.31,.52,.32,.61,0,.08-.27,1.01-3.34,1.12-3.71"/><path class="cls-6" d="M109.56,70.25l1.14,4.27c.02,.09,.08,.16,.15,.2l.96-3.16,2.41,2.26c.04-.07,.06-.15,.03-.24l-1.14-4.27-3.55,.95Z"/></g></g><g><path class="cls-7" d="M114.88,60.44c-2.27-2.27-5.94-2.27-8.21,0-5.23,5.66,2.55,13.43,8.21,8.21,2.27-2.27,2.27-5.94,0-8.21Z"/><path class="cls-9" d="M114.31,61.01c-1.95-1.95-5.12-1.95-7.07,0-4.5,4.87,2.2,11.57,7.07,7.07,1.95-1.95,1.95-5.12,0-7.07Z"/><path class="cls-11" d="M113.46,61.86c1.47,1.45,1.49,3.89,0,5.37-3.69,3.41-8.77-1.64-5.39-5.35,1.44-1.49,3.94-1.5,5.39-.02Z"/><path class="cls-2" d="M113.46,61.86c.09,.09,.18,.19,.27,.29,.31,1.03,.06,2.18-.75,3-2.37,2.29-6.11-.25-4.9-3.27,1.44-1.49,3.94-1.5,5.39-.02Z"/><path class="cls-6" d="M111.9,60.97c1.42,1.51-.71,3.64-2.22,2.22-.61-.61-.61-1.61,0-2.22,.61-.36,1.46-.24,2.13-.09,.03,.03,.07,.06,.1,.09Z"/></g></g></g></g></svg>