<?xml version="1.0" encoding="UTF-8"?><svg id="Capa_2" xmlns="http://www.w3.org/2000/svg" xmlns:xlink="http://www.w3.org/1999/xlink" viewBox="0 0 136 136"><defs><style>.cls-1{fill:#7f4f42;}.cls-2{fill:#78c18f;}.cls-3{fill:#a82a60;}.cls-4{fill:#e5bf50;}.cls-5{fill:#e4ecf5;}.cls-6{fill:#5d745d;}.cls-7{fill:#d49c7e;}.cls-8{fill:#402e26;}.cls-9{fill:#ead18b;}.cls-10{fill:#9f425b;}.cls-11{clip-path:url(#clippath-1);}.cls-12{fill:#bb8577;}.cls-13{fill:#c3485d;}.cls-14{fill:#664037;}.cls-15{fill:#cb677f;}.cls-16{clip-path:url(#clippath);}.cls-17{fill:#4d332d;}.cls-18{fill:none;}.cls-19{fill:#80213d;}.cls-20{fill:#bad3ee;}.cls-21{fill:#c6a24c;}.cls-22{fill:#a61f40;}.cls-23{fill:#8d6d5b;}.cls-24{fill:#845b45;}.cls-25{fill:#202c89;}</style><clipPath id="clippath"><path class="cls-18" d="M32.29,91.82c-2.35,0-4.25-1.9-4.25-4.25v-4.23c.22-5.64,8.27-5.64,8.5,0v4.23c0,2.35-1.9,4.25-4.25,4.25Z"/></clipPath><clipPath id="clippath-1"><rect class="cls-18" x="17.14" y="47.91" width="30.29" height="37.55" rx="13.99" ry="13.99"/></clipPath></defs><g id="Capa_1-2"><g><path class="cls-2" d="M136,68c0,2.48-.13,4.92-.39,7.33-.11,1.07-.25,2.13-.42,3.18-.11,.71-.23,1.41-.36,2.11-5.92,31.52-33.59,55.38-66.83,55.38-6.24,0-12.28-.84-18.02-2.41-.89-.24-1.78-.51-2.65-.79-10.47-3.34-19.84-9.14-27.42-16.73-1.88-1.89-3.66-3.88-5.31-5.97C5.46,98.52,0,83.89,0,68,0,30.45,30.45,0,68,0c16.24,0,31.14,5.69,42.84,15.19,.84,.68,1.67,1.39,2.48,2.11,1.14,1.03,2.26,2.09,3.33,3.18,11.97,12.26,19.36,29.03,19.36,47.52Z"/><g><g><g><path class="cls-23" d="M63.65,75.33V20.48h53c-1.83-1.87-3.77-3.64-5.81-5.29H61c-1.46,0-2.65,1.19-2.65,2.65v60.14c0,1.46,1.19,2.65,2.65,2.65h73.83c.33-1.75,.59-3.51,.78-5.29H63.65Z"/><path class="cls-12" d="M63.65,75.33V20.48h53c-1.07-1.1-2.18-2.16-3.33-3.18H63.27c-1.37,0-2.48,1.11-2.48,2.47v56.26c0,1.37,1.11,2.47,2.48,2.47h71.92c.16-1.05,.3-2.11,.42-3.18H63.65Z"/><path class="cls-7" d="M63.65,30.31v24.34c0,.79-.64,1.43-1.43,1.43s-1.43-.64-1.43-1.43V30.31c.06-1.88,2.79-1.89,2.85,0Z"/><path class="cls-7" d="M101.03,20.48h-27.17c-.88,0-1.59-.71-1.59-1.59s.71-1.59,1.59-1.59h27.17c2.1,.07,2.11,3.11,0,3.18Z"/><path class="cls-7" d="M126.88,78.51h-35.14c-2.1-.07-2.12-3.11,0-3.18h35.14c2.1,.07,2.12,3.11,0,3.18Z"/></g><path class="cls-6" d="M136,68c0,2.48-.13,4.92-.39,7.33H63.65V20.48h53c11.97,12.26,19.36,29.03,19.36,47.52Z"/></g><path class="cls-22" d="M74.23,42.16c-1.37-2.49-2.23-5.84-.34-7.96,1.86-2.09,5.32-1.65,7.7-.2,2.37,1.43,4.18,3.61,5.94,5.74,.7-2.4,1.65-4.73,2.82-6.93,.8-1.5,1.8-3.03,3.35-3.74,2.66-1.23,5.91,.52,7.46,3.01,.9,1.45,1.41,3.14,1.46,4.85,.09,3.4-1.59,6.59-3.51,9.39-1.68,2.47-3.58,4.79-5.67,6.93-.7,.72-1.46,1.44-2.4,1.79-2.42,.9-7.43-2.92-9.35-4.34-3.05-2.27-5.63-5.19-7.46-8.53Z"/></g><g><g id="Person1"><g id="Arm"><path class="cls-10" d="M58.82,114.63c-5.43,0-11.27-4.76-19.07-15.42l7.07-5.18c8.85,12.1,12.09,11.82,12.12,11.81,0,0,.92-.36,2.18-3.35,1.26-3.01,2.28-7.26,3.22-11.34l8.54,1.96c-2.34,9.93-4.75,21.31-14.07,21.52Z"/></g><g id="Hand"><path class="cls-14" d="M63.73,92.13c0,1.96,1.59,3.56,3.56,3.56h9.66c1.98,0,3.56-1.63,3.56-3.56,0-1.97-1.59-3.56-3.56-3.56h-9.66c-1.93,0-3.56,1.57-3.56,3.56Z"/><path class="cls-24" d="M65.32,90.54c0,1.96,1.59,3.56,3.56,3.56h9.66c.57,0,1.11-.13,1.59-.37,1.2-2.29-.58-5.2-3.18-5.15h-9.66c-.57,0-1.11,.14-1.59,.37-.24,.48-.37,1.02-.37,1.59Z"/></g><g id="Body"><g><path class="cls-10" d="M49.98,103.81v29.78c-14.07-3.85-26.48-12.19-35.39-23.49v-6.29c.25-18.47,24.5-24.39,33.3-8.33,1.33,2.48,2.08,5.32,2.08,8.33Z"/><path class="cls-15" d="M49.98,103.81v29.78c-11.44-3.12-21.88-9.29-30.08-17.52,.11-2.81-.32-13.38,.39-15.95,1.1-5.35,4.85-10.04,9.8-12.34,1.54-.72,3.17-1.21,4.85-1.47,5.62,.84,10.38,4.34,12.95,9.16,1.33,2.48,2.08,5.32,2.08,8.33Z"/><path class="cls-13" d="M47.33,103.81v28.99c-10.47-3.34-19.84-9.14-27.42-16.73,.11-2.81-.32-13.38,.39-15.95,1.33-6.57,6.71-12.06,13.25-13.54,7.91,1.62,13.86,9.07,13.79,17.22Z"/></g><g><path class="cls-5" d="M40.9,88.38c0,2.48-.24,4.86-.64,7.11-1.99,11.27-7.97,19.29-7.97,19.29-1.89-2.28-8.89-14.62-8.61-26.4,1.35-.75,2.82-1.34,4.36-1.72v.91c0,2.35,1.9,4.25,4.25,4.25,2.35,0,4.25-1.9,4.25-4.25v-.91c1.54,.38,3.01,.96,4.36,1.72Z"/><path class="cls-20" d="M40.9,88.38c0,2.48-.24,4.86-.64,7.11,0,0-5.23,0-7.97-3.67,2.35,0,4.25-1.9,4.25-4.25v-.91c1.54,.38,3.01,.96,4.36,1.72Z"/><path class="cls-20" d="M32.28,91.82c-2.74,3.67-7.97,3.67-7.97,3.67-.4-2.25-.64-4.64-.64-7.11,1.35-.75,2.82-1.34,4.36-1.72v.91c0,2.35,1.9,4.25,4.25,4.25Z"/></g></g><g id="HEAD"><g id="Ears"><g><path class="cls-1" d="M22.89,72.26c.2,2.37-1.63,4.47-4.04,4.46h-3.41c-5.4-.13-5.4-8.37,0-8.5h3.41c2.23,0,4.04,1.81,4.04,4.04Z"/><path class="cls-1" d="M53.17,72.26c.2,2.37-1.63,4.47-4.04,4.46h-3.41c-5.4-.13-5.4-8.37,0-8.5h3.41c2.23,0,4.04,1.81,4.04,4.04Z"/></g><g><path class="cls-14" d="M24.32,72.47c0,.93-.76,1.69-1.69,1.69h-6.35c-.93,0-1.69-.76-1.69-1.69s.76-1.69,1.69-1.69h6.35c.93,0,1.69,.76,1.69,1.69Z"/><path class="cls-14" d="M49.99,72.47c0,.93-.76,1.69-1.69,1.69h-6.35c-.93,0-1.69-.76-1.69-1.69s.76-1.69,1.69-1.69h6.35c.93,0,1.69,.76,1.69,1.69Z"/></g></g><g id="Neck"><g class="cls-16"><path class="cls-14" d="M32.29,91.82c-2.35,0-4.25-1.9-4.25-4.25v-4.23c.22-5.64,8.27-5.64,8.5,0v4.23c0,2.35-1.9,4.25-4.25,4.25Z"/><path class="cls-1" d="M34.41,91.82c-2.35,0-4.25-1.9-4.25-4.25v-4.23c.22-5.64,8.27-5.64,8.5,0v4.23c0,2.35-1.9,4.25-4.25,4.25Z"/><rect class="cls-14" x="17.14" y="50.03" width="30.29" height="37.55" rx="13.99" ry="13.99"/></g></g><g id="Face"><g class="cls-11"><rect class="cls-1" x="17.14" y="47.91" width="30.29" height="37.55" rx="13.99" ry="13.99"/><rect class="cls-24" x="21.66" y="47.91" width="30.29" height="37.55" rx="13.99" ry="13.99"/></g></g><g id="Blush"><path class="cls-1" d="M43.79,73.98c0-1.16-.94-2.1-2.1-2.1-2.79,.1-2.79,4.1,0,4.21,1.16,0,2.1-.94,2.1-2.1Z"/><path class="cls-1" d="M24.99,73.98c0-1.16-.94-2.1-2.1-2.1-2.79,.1-2.79,4.1,0,4.21,1.16,0,2.1-.94,2.1-2.1Z"/></g><path id="Mouth" class="cls-14" d="M32.29,78.73c-1.75,0-3.34-.54-4.14-1.4-.46-.52,.3-1.23,.78-.72,1.22,1.4,5.49,1.4,6.71,0,.48-.5,1.25,.2,.78,.72-.8,.86-2.38,1.4-4.14,1.4Z"/><g id="Mouth2"><path class="cls-19" d="M37.47,75.46c.02,2.83-2.35,5.21-5.19,5.18-2.56,0-4.74-1.88-5.12-4.4h0c-.04-.26-.06-.52-.06-.78h10.37Z"/><path class="cls-3" d="M36.53,76.59c0,1.07-.37,2.13-1,2.91-.89,.72-2.02,1.15-3.25,1.15s-2.36-.43-3.25-1.15c-.62-.78-1-1.83-1-2.91h8.5Z"/><path id="Mouth2-2" class="cls-5" d="M37.12,75.79v.68c-2.46,1.97-7.01,2.01-9.53,.1v-.78h9.53Z"/><path class="cls-14" d="M27.16,76.23c.27,.23,.57,.45,.89,.64,0-.09-.01-.72-.01-.81h8.5c0,.09,0,.72,0,.81,.32-.19,.62-.41,.89-.64,.04-.25,.06-.51,.06-.78h-10.37c0,.26,.02,.52,.06,.78Z"/></g><g id="Nose1"><path class="cls-14" d="M34.62,73.93h-4.66c-.7-.01-.7-1.05,0-1.06h4.66c.7,.01,.7,1.05,0,1.06Z"/></g><g id="Eyes"><path class="cls-14" d="M28.54,68.69c0-1.15-.93-2.08-2.08-2.08-2.75,.1-2.75,4.06,0,4.16,1.15,0,2.08-.93,2.08-2.08Z"/><path class="cls-14" d="M40.19,68.69c0-1.15-.93-2.08-2.08-2.08-2.75,.1-2.75,4.06,0,4.16,1.15,0,2.08-.93,2.08-2.08Z"/><path class="cls-25" d="M28.4,69.47c0-1.07-.87-1.94-1.94-1.94-2.56,.09-2.56,3.79,0,3.87,1.07,0,1.94-.87,1.94-1.94Z"/><path class="cls-5" d="M27.82,69.51c.9-.94-.45-2.29-1.4-1.4-.9,.94,.45,2.29,1.4,1.4Z"/><path class="cls-25" d="M40.05,69.47c0-1.07-.87-1.94-1.94-1.94-2.56,.09-2.56,3.79,0,3.87,1.07,0,1.94-.87,1.94-1.94Z"/><path class="cls-5" d="M39.47,69.51c.9-.94-.45-2.29-1.4-1.4-.9,.94,.45,2.29,1.4,1.4Z"/></g><g id="Hair1"><path class="cls-8" d="M49.51,76.7c-.15,.04-2.87,.01-3.1,.02-1.11,2.73-3.05,5.03-5.51,6.58h8.98v-6.65c-.12,.02-.24,.04-.36,.05Zm-31.35,.02c-.57-.02-2.95,.06-3.47-.07v6.65h8.98c-2.46-1.55-4.4-3.85-5.51-6.58Zm31.69-15.59c-.26-6.79-5.22-13.01-11.77-14.79-1.44-.41-2.94-.62-4.45-.62-1.47,.02-3.68-.07-5.12,.18-5.54,.8-10.47,4.67-12.58,9.85-.69,1.67-1.1,3.45-1.2,5.28-.06,.5-.02,6.61-.03,7.27,.49-.12,1.92-.05,2.45-.07v-6.19c5.43,1.76,11.82-.85,14.52-5.69,1.37,6.85,8.9,11.48,15.76,9.4v2.48c.18,0,1.83-.01,1.97,.01,.16,0,.32,.03,.48,.06,0-.49,.02-6.88-.02-7.16Z"/><path class="cls-17" d="M49.87,61.96v6.33c-.49-.12-1.92-.05-2.45-.07v-2.48c-6.87,2.08-14.39-2.55-15.76-9.4-2.06,3.5-5.75,5.91-10.02,6.2v-2.69c-.1-8.12,7.56-15.56,15.67-13.71,1.28,.3,2.52,.75,3.68,1.35,5.36,2.68,8.93,8.48,8.87,14.47Z"/><path class="cls-17" d="M49.13,76.72c.25,0,.5-.03,.74-.07v6.65h-8.98c2.46-1.55,4.4-3.85,5.51-6.58h2.73Z"/></g></g></g><g><path class="cls-21" d="M69.9,87.43c-2.3,2.34,1.03,5.74,3.42,3.42l27.13-28.85c.72-.73,.15-2.04-.86-2.02-.3,0-.61,.1-.84,.32l-28.85,27.13Z"/><path class="cls-4" d="M69.9,87.43c-.28,.26-.48,.57-.61,.91,.8,1.32,2.7,1.55,3.78,.44,6.54-6.58,21.03-21.17,27.68-27.86-.17-.88-1.35-1.26-2-.62-6.72,6.32-22.28,20.95-28.85,27.13Z"/><path class="cls-9" d="M80.66,77.31c.88,1.12,2.56,1.22,3.57,.23,.04-.03,16.48-16.6,16.52-16.63-.17-.89-1.35-1.26-2-.62l-18.09,17.01Z"/></g></g></g></g></svg>