<?xml version="1.0" encoding="UTF-8"?><svg id="Capa_2" xmlns="http://www.w3.org/2000/svg" viewBox="0 0 136 136"><defs><style>.cls-1{fill:#323442;}.cls-2{fill:#6db4d7;}.cls-3{fill:#a97d63;}.cls-4{fill:#5d745d;}.cls-5{fill:#98cde6;}.cls-6{fill:#d49c7e;}.cls-7{fill:#ca7837;}.cls-8{fill:#7bb179;}.cls-9{fill:#bb8577;}.cls-10{fill:#c3485d;}.cls-11{fill:#d79633;}.cls-12{fill:#a25e3e;}.cls-13{fill:#5d5398;}.cls-14{fill:#688768;}.cls-15{fill:#3b4553;}.cls-16{fill:#a2c5a7;}.cls-17{fill:#cb677f;}.cls-18{fill:#80c2df;}.cls-19{fill:#629fb0;}.cls-20{fill:#8d6d5b;}.cls-21{fill:#82749d;}.cls-22{fill:#454f5f;}</style></defs><g id="Capa_1-2"><g><path class="cls-11" d="M136,68c0,4.41-.42,8.72-1.22,12.9-2.04,10.62-6.55,20.35-12.9,28.59-2.14,2.77-4.49,5.38-7.02,7.79-12.1,11.51-28.45,18.61-46.44,18.71-.14,0-.27,0-.41,0-.77,0-1.55-.01-2.31-.04-2.31-.08-4.58-.27-6.83-.57-7.53-1.01-14.67-3.25-21.21-6.52-2.23-1.11-4.39-2.35-6.47-3.69-.87-.57-1.73-1.15-2.58-1.75C11.29,111.1,0,90.87,0,68,0,30.45,30.45,0,68,0s68,30.45,68,68Z"/><g><g><g><path class="cls-20" d="M47.17,14.28c-3.1,37.8-6.39,76.74-9.52,114.59-3.16-1.58-6.18-3.4-9.05-5.44,1.52-18.24,3.17-38.14,4.69-56.31,.91-10.95,3.03-36.4,3.91-47.02l.52-6.21c.16-1.93,1.45-3.49,3.17-4.08,3-1.09,6.35,1.29,6.28,4.47Z"/><path class="cls-3" d="M47.17,14.28c-3.1,37.8-6.39,76.74-9.52,114.59-2.23-1.11-4.39-2.35-6.47-3.69,1.71-20.58,3.56-42.81,5.27-63.32,.82-9.88,1.97-23.71,2.79-33.53,.17-1.99,.52-6.24,.69-8.23l.78-9.32c.03-.34,.09-.66,.19-.97,3-1.1,6.35,1.3,6.28,4.47Z"/></g><g><path class="cls-20" d="M68.41,136c-3.19,.02-6.42-.19-9.55-.61-3.2-38.43-6.85-82.28-10.05-120.71-.35-3.31,3.12-6.04,6.27-4.87,1.72,.59,3.01,2.16,3.17,4.08l.52,6.21c.34,4.14,.77,9.2,1.11,13.33,2.75,33.03,5.78,69.47,8.53,102.57Z"/><path class="cls-3" d="M65.69,135.96c-2.31-.08-4.58-.27-6.83-.57-1.54-18.5-3.6-43.28-5.12-61.54-.95-11.39-3.57-42.83-4.47-53.75l-.45-5.42c-.01-.13-.02-.27-.02-.4-.06-3.17,3.29-5.57,6.28-4.47,.1,.31,.16,.64,.19,.97,.23,2.8,.87,10.49,1.09,13.13,.51,6.09,1.15,13.82,1.66,19.96,2.45,29.43,5.2,62.55,7.66,92.09Z"/></g></g><g id="Landscape"><rect class="cls-2" x="17.91" y="33.43" width="59.98" height="70.68"/><g><g><path class="cls-4" d="M72.72,51.73c0,2.54-.49,4.91-1.33,6.89-5.04,11.13-15.29,4.67-15.15-6.89,.41-16.57,15.92-17.02,16.48,0Z"/><path class="cls-14" d="M72.72,51.73c0,2.54-.49,4.91-1.33,6.89-5.5,1.13-9.46-4.99-9.55-12.49,0-2.54,.49-4.9,1.33-6.89,5.5-1.13,9.46,4.99,9.55,12.48Z"/></g><g><path class="cls-12" d="M65.83,52.85v21.61c-.05,1.78-2.65,1.8-2.71,0v-21.61c.05-1.79,2.65-1.79,2.71,0Z"/><path class="cls-7" d="M65.83,52.85v21.41c-.78,.07-1.47-.56-1.46-1.35v-21.41c.78-.07,1.47,.56,1.46,1.35Z"/><path class="cls-11" d="M65.43,51.89c.25,.25,.4,.58,.4,.96v11.96c-.78,.07-1.47-.56-1.46-1.35v-11.96c.4-.04,.8,.12,1.07,.39Z"/></g></g><g><g><path class="cls-4" d="M52.15,56.51c0,2.54-.49,4.91-1.33,6.89-5.04,11.13-15.29,4.67-15.15-6.89,.41-16.57,15.92-17.02,16.48,0Z"/><path class="cls-14" d="M52.15,56.51c0,2.54-.49,4.91-1.33,6.89-5.5,1.13-9.46-4.99-9.55-12.49,0-2.54,.49-4.9,1.33-6.89,5.5-1.13,9.46,4.99,9.55,12.48Z"/></g><g><path class="cls-12" d="M45.27,57.62v21.61c-.05,1.78-2.65,1.8-2.71,0v-21.61c.05-1.79,2.65-1.79,2.71,0Z"/><path class="cls-7" d="M45.27,57.62v21.41c-.78,.07-1.47-.56-1.46-1.35v-21.41c.78-.07,1.47,.56,1.46,1.35Z"/><path class="cls-11" d="M44.87,56.67c.25,.25,.4,.58,.4,.96v11.96c-.78,.07-1.47-.56-1.46-1.35v-11.96c.4-.04,.8,.12,1.07,.39Z"/></g></g><g><path class="cls-8" d="M47.47,81.88c.02,8.07-6.56,14.79-14.78,14.78-8.87,.07-15.89-7.99-14.65-16.76,2.95-18.06,28.87-16.44,29.43,1.98Z"/><path class="cls-4" d="M45.14,88.07c0,.67-.05,1.33-.13,1.98-2.65,3.98-7.18,6.61-12.32,6.61-8.87,.07-15.89-7.99-14.65-16.76,8.04-12.03,26.99-6.52,27.1,8.17Z"/></g><g><path class="cls-8" d="M71.72,84.51c0,2.48-.74,4.79-2.02,6.72-7.16,10.58-23.74,4.51-22.17-8.35,2.42-14.85,23.74-13.52,24.2,1.63Z"/><path class="cls-4" d="M69.8,89.6c0,.55-.04,1.1-.11,1.63-2.18,3.27-5.9,5.43-10.13,5.43-7.29,.06-13.07-6.57-12.04-13.78,6.61-9.9,22.19-5.36,22.28,6.72Z"/></g><g><path class="cls-8" d="M77.9,83.27v20.84H17.91v-21.15h57.25c.94,0,1.86,.11,2.73,.32Z"/><g><path class="cls-16" d="M54.5,90.26h-7.69c-.71-.01-.72-1.08,0-1.09h7.69c.71,.01,.72,1.08,0,1.09Z"/><path class="cls-16" d="M52.25,86.04h-7.69c-.71-.01-.72-1.08,0-1.09h7.69c.71,.01,.72,1.08,0,1.09Z"/><path class="cls-16" d="M39.69,88.61h-7.69c-.71-.01-.72-1.08,0-1.09h7.69c.71,.01,.72,1.08,0,1.09Z"/><path class="cls-16" d="M48.27,93.57h-7.69c-.71-.01-.72-1.08,0-1.09h7.69c.71,.01,.72,1.08,0,1.09Z"/><path class="cls-16" d="M25.84,95c0,.3-.24,.54-.54,.54h-7.38v-1.09h7.38c.3,0,.54,.24,.54,.54Z"/><path class="cls-16" d="M41.57,105.19h-7.69c-.71-.01-.72-1.08,0-1.09h7.69c.71,.01,.72,1.08,0,1.09Z"/><path class="cls-16" d="M35.67,91.74h-7.69c-.71-.01-.72-1.08,0-1.09h7.69c.71,.01,.72,1.08,0,1.09Z"/><path class="cls-16" d="M30.99,85.52h-7.69c-.71-.01-.72-1.08,0-1.09h7.69c.71,.01,.72,1.08,0,1.09Z"/><path class="cls-16" d="M33.32,99.93h-7.69c-.71-.01-.72-1.08,0-1.09h7.69c.71,.01,.72,1.08,0,1.09Z"/><path class="cls-16" d="M50.66,100.48h-7.69c-.71-.01-.72-1.08,0-1.09h7.69c.71,.01,.72,1.08,0,1.09Z"/><path class="cls-16" d="M60.39,95.89h-7.69c-.71-.01-.72-1.08,0-1.09h7.69c.71,.01,.72,1.08,0,1.09Z"/><path class="cls-16" d="M77.9,92.77v1.09h-7.03c-.3,0-.54-.24-.54-.54s.24-.54,.54-.54h7.03Z"/><path class="cls-16" d="M69.17,99.39h-7.69c-.71-.01-.72-1.08,0-1.09h7.69c.71,.01,.72,1.08,0,1.09Z"/><path class="cls-16" d="M70.52,90.26h-7.69c-.71-.01-.72-1.08,0-1.09h7.69c.71,.01,.72,1.08,0,1.09Z"/><path class="cls-16" d="M40.03,97.02h-7.69c-.71-.01-.72-1.08,0-1.09h7.69c.71,.01,.72,1.08,0,1.09Z"/><path class="cls-16" d="M66.14,86.04h-7.69c-.71-.01-.72-1.08,0-1.09h7.69c.71,.01,.72,1.08,0,1.09Z"/></g></g></g><g><path class="cls-20" d="M80.7,103.9c0,1.46-1.18,2.65-2.65,2.65H17.91c-1.94,.04-3.28-2.17-2.35-3.87,.45-.86,1.33-1.42,2.35-1.43h60.14c1.48,0,2.65,1.21,2.65,2.65Z"/><path class="cls-9" d="M80.4,102.68c-.45,.86-1.33,1.42-2.35,1.42H17.91c-1.02,0-1.91-.58-2.35-1.42,.45-.86,1.33-1.42,2.35-1.43h60.14c1.02,0,1.91,.58,2.35,1.43Z"/><path class="cls-6" d="M64.97,104.1h-24.34c-.79,0-1.43-.64-1.43-1.43s.64-1.43,1.43-1.43h24.34c1.88,.06,1.89,2.79,0,2.85Z"/></g><g><path class="cls-20" d="M80.7,33.22c0,1.46-1.18,2.65-2.65,2.65H17.91c-1.94,.04-3.28-2.17-2.35-3.87,.45-.86,1.33-1.42,2.35-1.43h60.14c1.48,0,2.65,1.21,2.65,2.65Z"/><path class="cls-9" d="M80.4,32c-.45,.86-1.33,1.42-2.35,1.42H17.91c-1.02,0-1.91-.58-2.35-1.42,.45-.86,1.33-1.42,2.35-1.43h60.14c1.02,0,1.91,.58,2.35,1.43Z"/><path class="cls-6" d="M64.97,33.43h-24.34c-.79,0-1.43-.64-1.43-1.43s.64-1.43,1.43-1.43h24.34c1.88,.06,1.89,2.79,0,2.85Z"/></g><g><path class="cls-20" d="M66.18,22.91v4.86c0,1.52-1.25,2.82-2.81,2.81H31.45c-1.55,0-2.81-1.26-2.81-2.81v-4.86c0-1.35,.95-2.48,2.22-2.75,.19-.04,.39-.06,.59-.06h31.92c1.55,0,2.81,1.26,2.81,2.81Z"/><path class="cls-9" d="M66.18,22.91c-.01,.17,.04,5.43-.05,5.36-.19,.04-.39,.06-.59,.06h-31.92c-1.55,0-2.81-1.26-2.81-2.81-.02-.17-.02-5.43,.05-5.36,.19-.04,.39-.06,.59-.06h31.92c1.55,0,2.81,1.26,2.81,2.81Z"/><path class="cls-6" d="M62.3,23.91h-26.23c-2.51-.08-2.53-3.72,0-3.81h26.23c2.51,.08,2.53,3.72,0,3.81Z"/></g></g><g><g><path class="cls-20" d="M111.74,44.27c1.04,1.02,1.06,2.77,0,3.81l-10.83,10.83c-1.05,1.05-2.75,1.05-3.81,0-1.06-1.04-1.04-2.78,0-3.81l10.83-10.83c1.05-1.05,2.76-1.05,3.81,0Z"/><path class="cls-3" d="M111.74,44.27c.18,.18,.33,.39,.45,.6-.13,.29-.31,.57-.55,.81l-10.83,10.83c-1.23,1.27-3.43,.95-4.26-.6,.13-.29,.31-.57,.55-.81l10.83-10.83c1.05-1.05,2.76-1.05,3.81,0Z"/><path class="cls-9" d="M108.59,46.95l-5.84,5.84c-1.12,1.07-2.74-.54-1.67-1.67l5.84-5.84c1.12-1.07,2.74,.54,1.67,1.67Z"/><path class="cls-20" d="M120.1,61.86c-.42-.36-11.91-10.31-11.86-10.28l-3.82,3.82,10.28,11.86c2.51,2.88,7.21,.7,6.7-3.02-.12-.89-.55-1.75-1.29-2.39Zm-3.96,4c-1.63-1.73,.81-4.19,2.55-2.55,1.63,1.73-.8,4.19-2.55,2.55Z"/><path class="cls-3" d="M121.39,64.24c-.5,1.33-2.03,2.22-3.39,2.04,1.23-.39,1.64-2.08,.69-2.98-1.27-1.27-3.42-.07-3.04,1.66l-8.85-9.85,2.56-2.56,10.74,9.31c.74,.64,1.17,1.49,1.29,2.39Z"/><path class="cls-9" d="M116.23,61.01c-.34,.34-.9,.36-1.27,.03l-4.98-4.53c-.38-.34-.4-.92-.06-1.3,.34-.38,.92-.4,1.3-.06l4.98,4.53c.39,.35,.4,.96,.03,1.33Z"/></g><g><path class="cls-2" d="M99.86,31.58c1.2,1.19,1.17,3.15,0,4.3-.09,.08-11.15,11.16-11.23,11.23l1.87,1.87c.57,.57,.57,1.51,0,2.08l-1.32,1.32c-.7,.7-1.89,.52-2.35-.36-.16-.32-.76-1.46-.93-1.8l-1.91-3.68c-.03-.06-.06-.12-.08-.18-.64-1.16-.47-2.64,.51-3.62l11.15-11.15c1.19-1.19,3.11-1.19,4.3,0Z"/><path class="cls-19" d="M99.71,33.12c.52,.52,.77,1.2,.77,1.88-.15,.32-.35,.62-.61,.88-.09,.08-11.15,11.16-11.23,11.23l1.87,1.87c.58,.58,.57,1.52-.01,2.09-.61,.61-1.63,.45-2.02-.31l-2.45-4.73c-.03-.05-.05-.1-.07-.16-.55-1-.41-2.28,.44-3.13l9.62-9.62c1.02-1.02,2.68-1.02,3.71,0Z"/><path class="cls-5" d="M95.35,35.77l-4.26,4.26c-1.35,1.27-3.26-.63-1.99-1.99l4.26-4.26c1.35-1.27,3.26,.63,1.99,1.99Z"/><path class="cls-5" d="M88.22,49.38c1.11,1.14-.28,2.92-1.64,2.14l-.68-1.3c.07-1.12,1.53-1.66,2.32-.84Z"/></g><g><path class="cls-15" d="M101.21,36.2c1.09,1.31,5.73,6.88,6.72,8.07l-10.83,10.83-8.07-6.72c-1.23-1.03-1.32-2.89-.18-4.03l8.33-8.33c1.13-1.13,3-1.05,4.03,.18Z"/><path class="cls-22" d="M101.21,36.2l5.25,6.3s-1.19,1.19-1.2,1.2l-4.09-4.09c-.29-.29-.76-.29-1.05,0-.29,.29-.29,.76,0,1.05l4.09,4.09-1.51,1.51-6.56-6.56c-.29-.29-.76-.29-1.05,0-.29,.29-.29,.76,0,1.05l6.56,6.56-1.51,1.51-5.76-5.76c-.29-.29-.76-.29-1.05,0-.29,.29-.29,.76,0,1.05l5.76,5.76c-.61,.61-1.44,.87-2.24,.79l-3.37-3.37c-.34-.35-.96-.26-1.18,.18l-.75-.62c-1.05-.88-1.69-2.06-1.9-3.31l7.52-7.52c1.13-1.13,3-1.05,4.03,.18Z"/><g><path class="cls-15" d="M101.76,50.44l-1.05,1.05-7.38-7.38c-.29-.29-.29-.76,0-1.05s.76-.29,1.05,0l7.38,7.38Z"/><path class="cls-15" d="M104.32,47.88l-1.05,1.05-8.18-8.18c-.29-.29-.29-.76,0-1.05s.76-.29,1.05,0l8.18,8.18Z"/><path class="cls-15" d="M106.89,45.32l-1.05,1.05-5.72-5.72c-.29-.29-.29-.76,0-1.05s.76-.29,1.05,0l5.72,5.72Z"/><path class="cls-15" d="M99.2,53l-1.05,1.05-5.72-5.72c-.29-.29-.29-.76,0-1.05,.29-.29,.76-.29,1.05,0l5.72,5.72Z"/></g><g><polygon class="cls-1" points="100.14 48.82 101.76 50.44 100.71 51.49 99.09 49.87 100.14 48.82"/><rect class="cls-1" x="102.25" y="46.45" width="1.48" height="2.29" transform="translate(-3.49 86.76) rotate(-45)"/><rect class="cls-1" x="104.81" y="43.88" width="1.48" height="2.29" transform="translate(-.93 87.82) rotate(-45)"/><path class="cls-1" d="M96.86,50.65l2.35,2.35-1.05,1.05-5.72-5.72c-.24-.24-.28-.59-.13-.87l3.09,2.57c.43,.36,.94,.56,1.46,.62Z"/></g></g><g><path class="cls-19" d="M84.7,61.73c0,1.91,1.56,3.51,3.51,3.51,1.94,0,3.51-1.57,3.51-3.51-.04-1.92-1.44-6.68-3.51-6.81-2.09,.14-3.47,4.92-3.51,6.81Z"/><path class="cls-2" d="M84.7,61.73c0,.71,.21,1.37,.58,1.93,2.23,1.05,4.99-.72,4.93-3.21,0-1.3-.71-3.92-1.76-5.5-2.22-.34-3.74,4.96-3.75,6.78Z"/><path class="cls-5" d="M85.9,57.23c1.13-.2,2.2,.7,2.19,1.85,.02,1.67-2.11,2.51-3.23,1.31,.19-.98,.56-2.15,1.04-3.16Z"/></g></g><g><g><path class="cls-20" d="M133.48,79.54c-7.43-7.1-20.38-4.67-24.69,4.65-.2,.41-.74,.5-1.07,.18-10.76-11.02-30.13-6.09-34.18,8.74-2.03,7.18-.07,15.3,5.66,20.82,11.79,11.38,24.32,9.74,35.65,3.35,10.2-9.74,17.18-22.23,19.92-36.38-.4-.47-.83-.92-1.3-1.36Zm-11.31,10.66c-3.84,3.63-9.44-1.27-6.44-5.55,1.52-2.07,4.63-2.31,6.44-.47,1.64,1.63,1.68,4.35,0,6.02Z"/><path class="cls-9" d="M133.48,79.54c-7.43-7.1-20.38-4.67-24.69,4.65-.2,.41-.74,.5-1.07,.18-10.76-11.02-30.13-6.09-34.18,8.74-.58,6.16,1.58,12.55,6.34,17.15,14.04,13.55,29.13,8.65,41.99-.76,6.36-8.24,10.86-17.98,12.9-28.59-.4-.47-.83-.92-1.3-1.36Zm-10.21,6.52c-2.08,2.84-6.64,1.98-7.53-1.41-1.13-4.18,3.99-7.22,7.12-4.14,1.51,1.51,1.65,3.88,.41,5.55Z"/></g><g><path class="cls-19" d="M92.73,89.11c-1.66,1.67-4.35,1.65-6,0-1.66-1.66-1.66-4.34,0-6,4.15-3.82,9.8,1.87,6,6Z"/><path class="cls-18" d="M92.73,89.11c-.97,.97-2.3,1.38-3.57,1.21-3.24-2.76-.87-8,3.3-7.44,1.9,1.58,2.02,4.5,.27,6.23Z"/></g><g><path class="cls-7" d="M84.15,97.7c-1.66,1.67-4.35,1.65-6,0-1.66-1.66-1.66-4.34,0-6,4.15-3.82,9.8,1.87,6,6Z"/><path class="cls-11" d="M84.15,97.7c-.97,.97-2.3,1.38-3.57,1.21-3.24-2.76-.87-8,3.3-7.44,1.9,1.58,2.02,4.5,.27,6.23Z"/></g><g><path class="cls-10" d="M90.39,109.94c-1.66,1.67-4.35,1.65-6,0-1.66-1.66-1.66-4.34,0-6,4.15-3.82,9.8,1.87,6,6Z"/><path class="cls-17" d="M90.39,109.94c-.97,.97-2.3,1.38-3.57,1.21-3.24-2.76-.87-8,3.3-7.44,1.9,1.58,2.02,4.5,.27,6.23Z"/></g><g><path class="cls-13" d="M103.3,113.48c-1.66,1.67-4.35,1.65-6,0-1.66-1.66-1.66-4.34,0-6,4.15-3.82,9.8,1.87,6,6Z"/><path class="cls-21" d="M103.3,113.48c-.97,.97-2.3,1.38-3.57,1.21-3.24-2.76-.87-8,3.3-7.44,1.9,1.58,2.02,4.5,.27,6.23Z"/></g><g><path class="cls-8" d="M104.57,92.04c-1.66,1.67-4.35,1.65-6,0-1.66-1.66-1.66-4.34,0-6,4.15-3.82,9.8,1.87,6,6Z"/><path class="cls-16" d="M104.57,92.04c-.97,.97-2.3,1.38-3.57,1.21-3.24-2.76-.87-8,3.3-7.44,1.9,1.58,2.02,4.5,.27,6.23Z"/></g></g></g></g></svg>