<?xml version="1.0" encoding="UTF-8"?><svg id="Capa_2" xmlns="http://www.w3.org/2000/svg" viewBox="0 0 109 69"><defs><style>.cls-1{fill:#01194a;}</style></defs><g id="Capa_1-2"><g><g><path class="cls-1" d="M23.91,5.58C14.16,5.58,6.23,13.54,6.23,23.33s7.93,17.75,17.68,17.75c6.35,0,11.9-3.38,15.02-8.44-2.44-3.99-5.61-11.21-1.88-21.14-3.24-3.62-7.92-5.92-13.14-5.92Z"/><path class="cls-1" d="M36.02,38.61c-.22,.17-.48,.37-.78,.58-1.73,4.62-6.16,7.9-11.36,7.9s-9.7-3.34-11.4-8.01c-.55-.39-.97-.73-1.22-.94-.09-.08-.18-.15-.27-.23l-.15,.13C-.16,47.59,0,64.32,0,65.02v.59H28.02c.43-6.48,2.34-18.01,10.05-26.54-.56-.51-1.03-.87-1.34-1.08-.15,.14-.31,.28-.47,.41-.08,.07-.16,.13-.23,.2Z"/></g><path class="cls-1" d="M72.34,37.38c-.18,.16-.36,.32-.54,.47-.09,.08-.18,.15-.27,.22-1.73,1.38-5.7,3.98-10.95,4.81-.52,.07-1.04,.15-1.57,.19-.45,.03-.9,.05-1.35,.05-1.65,0-3.25-.2-4.8-.55-4.88-1.25-8.61-4.14-9.68-5.03-.1-.09-.21-.17-.31-.26l-.17,.15c-12.6,10.94-12.43,30.08-12.41,30.89v.68h53.94l-.03-.72c-.9-22.12-9.71-29.43-11.87-30.9Zm-7.5,14.98l-7.58-3.88-7.58,3.88v-9.42l7.58,4.07,7.58-4.07v9.42Z"/><path class="cls-1" d="M37.51,20.34c0,11.21,9.09,20.33,20.26,20.33h0c5.4,0,10.49-2.12,14.31-5.97,3.83-3.85,5.94-8.95,5.94-14.37,0-11.21-9.09-20.33-20.26-20.33-11.17,0-20.26,9.13-20.26,20.34Z"/><path class="cls-1" d="M86.26,64.59h22.73v-.53c.02-.63-.2-14.83-10.09-23.42l-.13-.12c-.32,.3-.65,.58-.99,.85l-7.03,13.74-1.25-8.06,2-3.25c-1.28,.31-2.61,.47-3.98,.47-.36,0-.71-.02-1.06-.04-.64-.04-1.28-.12-1.9-.23-.24-.04-.49-.09-.73-.14l1.97,3.18-1.31,7.68c1.06,3.75,1.54,7.37,1.77,9.86Z"/><path class="cls-1" d="M88.2,42.11c8.76,0,15.89-7.15,15.89-15.94,0-8.79-7.12-15.95-15.88-15.95-3.56,0-6.86,1.19-9.52,3.18,.83,2.28,1.28,4.74,1.28,7.31,0,5.34-1.96,10.22-5.19,13.97,2.82,4.46,7.78,7.43,13.42,7.43Z"/></g></g></svg>