<?xml version="1.0" encoding="UTF-8"?><svg id="Capa_2" xmlns="http://www.w3.org/2000/svg" viewBox="0 0 70 104.42"><defs><style>.cls-1{fill:#ff8a00;}</style></defs><g id="Capa_1-2"><g><g><path class="cls-1" d="M26.1,0V4.12h-8.38c-.98,0-1.78,.8-1.78,1.78V28.15c0,.98,.8,1.77,1.78,1.77H52.07c.98,0,1.78-.8,1.78-1.77V5.9c0-.98-.8-1.78-1.78-1.78h-8.38V0h-1.82V4.12h-13.95V0h-1.82Zm19.82,25.36H23.88v-2.38h22.03v2.38Zm-2.23-15.68c1.82,0,3.28,1.47,3.28,3.28s-1.46,3.27-3.28,3.27-3.28-1.47-3.28-3.27,1.47-3.28,3.28-3.28Zm-14.32,3.28c0,1.8-1.46,3.27-3.27,3.27s-3.27-1.47-3.27-3.27,1.46-3.28,3.27-3.28,3.27,1.47,3.27,3.28Z"/><g><rect class="cls-1" x="4.15" y="32.15" width="6.81" height="19.16"/><rect class="cls-1" x="4.15" y="52.7" width="6.81" height="19.17"/><path class="cls-1" d="M9.92,84.45v2.58c3.02-.99,5.2-3.83,5.2-7.18,0-4.18-3.39-7.56-7.56-7.56s-7.56,3.39-7.56,7.56c0,3.35,2.18,6.18,5.19,7.18v-2.58c-1.67-.86-2.82-2.59-2.82-4.6,0-2.87,2.32-5.2,5.19-5.2s5.19,2.32,5.19,5.2c0,2.01-1.15,3.74-2.83,4.6Z"/></g><g><rect class="cls-1" x="59.03" y="32.15" width="6.81" height="19.16"/><rect class="cls-1" x="59.03" y="52.7" width="6.81" height="19.17"/><path class="cls-1" d="M64.81,84.45v2.58c3.01-.99,5.19-3.83,5.19-7.18,0-4.18-3.39-7.56-7.56-7.56s-7.56,3.39-7.56,7.56c0,3.35,2.18,6.18,5.19,7.18v-2.58c-1.67-.86-2.83-2.59-2.83-4.6,0-2.87,2.33-5.2,5.2-5.2s5.19,2.32,5.19,5.2c0,2.01-1.15,3.74-2.82,4.6Z"/></g><path class="cls-1" d="M13.98,31.12c-.98,0-1.78,.8-1.78,1.78v31.6c0,.98,.8,1.78,1.78,1.78H55.81c.99,0,1.78-.8,1.78-1.78v-31.6c0-.98-.79-1.78-1.78-1.78H13.98Zm35.13,24.58c0,1.46-1.19,2.65-2.65,2.65h-8.29l5.63-5.63c.65-.65,.65-1.69,0-2.34-.65-.64-1.69-.64-2.34,0l-7.96,7.96h-10.18c-1.47,0-2.65-1.19-2.65-2.65v-9.25c0-1.46,1.18-2.65,2.65-2.65h23.14c1.46,0,2.65,1.19,2.65,2.65v9.25Z"/></g><g><rect class="cls-1" x="21.08" y="68.2" width="11.24" height="17.52"/><rect class="cls-1" x="21.08" y="87.55" width="11.24" height="8.31"/><path class="cls-1" d="M18.17,96.98c-1.78,0-3.22,1.67-3.22,3.72s1.44,3.72,3.22,3.72h12.73c1.78,0,3.23-1.67,3.23-3.72s-1.44-3.72-3.23-3.72h-12.73Z"/><rect class="cls-1" x="37.68" y="68.2" width="11.24" height="17.52"/><rect class="cls-1" x="37.68" y="87.55" width="11.24" height="8.31"/><path class="cls-1" d="M39.09,96.98c-1.78,0-3.23,1.67-3.23,3.72s1.44,3.72,3.23,3.72h12.73c1.78,0,3.23-1.67,3.23-3.72s-1.45-3.72-3.23-3.72h-12.73Z"/></g></g></g></svg>