<?xml version="1.0" encoding="UTF-8"?><svg id="Capa_2" xmlns="http://www.w3.org/2000/svg" viewBox="0 0 110 110"><defs><style>.cls-1{fill:#01194a;}</style></defs><g id="Capa_1-2"><g><path class="cls-1" d="M0,55c0,30.38,24.62,55,55,55s55-24.62,55-55S85.38,0,55,0,0,24.62,0,55Zm97.47,0c0,23.46-19.02,42.47-42.47,42.47S12.52,78.46,12.52,55,31.54,12.53,55,12.53s42.47,19.01,42.47,42.47Z"/><path class="cls-1" d="M53.05,22.57V54.8c0,.94,.77,1.71,1.71,1.71s1.71-.77,1.71-1.71V22.57c0-.94-.77-1.71-1.71-1.71s-1.71,.77-1.71,1.71Z"/><path class="cls-1" d="M24.8,67.28c-.87,.36-1.52,.79-1.45,.96,.07,.17,.83,0,1.7-.35l29.75-12.4c.87-.36,1.52-.79,1.45-.96-.07-.17-.83,0-1.7,.36l-29.75,12.39Z"/><path class="cls-1" d="M55.58,52.54c-1.38,0-2.5,1.12-2.5,2.5s1.12,2.5,2.5,2.5h21.13c1.38,0,2.5-1.12,2.5-2.5s-1.12-2.5-2.5-2.5h-21.13Z"/><path class="cls-1" d="M51,54.72c0,2.35,1.91,4.25,4.26,4.25s4.26-1.9,4.26-4.25-1.9-4.26-4.26-4.26-4.26,1.91-4.26,4.26Z"/></g></g></svg>