<?xml version="1.0" encoding="UTF-8"?><svg id="Capa_2" xmlns="http://www.w3.org/2000/svg" xmlns:xlink="http://www.w3.org/1999/xlink" viewBox="0 0 134 40"><defs><style>.cls-1{fill:url(#linear-gradient-2);}.cls-2{font-family:Montserrat-Medium, Montserrat;font-size:12px;}.cls-2,.cls-3{fill:#fff;}.cls-4{fill:#d68a31;}.cls-5{letter-spacing:0em;}.cls-6{fill:url(#radial-gradient);}.cls-3{font-family:Montserrat-SemiBold, Montserrat;font-size:14px;}.cls-7{letter-spacing:0em;}.cls-8{letter-spacing:0em;}.cls-9{fill:url(#linear-gradient);}.cls-10{letter-spacing:0em;}</style><radialGradient id="radial-gradient" cx="6.93" cy="-3.68" fx="6.93" fy="-3.68" r="39.24" gradientTransform="matrix(1, 0, 0, 1, 0, 0)" gradientUnits="userSpaceOnUse"><stop offset="0" stop-color="#e5dfd6"/><stop offset=".04" stop-color="#e7e1d9"/><stop offset=".37" stop-color="#f4f1ee"/><stop offset=".69" stop-color="#fcfbfa"/><stop offset="1" stop-color="#fff"/></radialGradient><linearGradient id="linear-gradient" x1="19.05" y1="15.76" x2="24.28" y2="15.76" gradientTransform="matrix(1, 0, 0, 1, 0, 0)" gradientUnits="userSpaceOnUse"><stop offset="0" stop-color="#ff9c7d"/><stop offset=".28" stop-color="#f48b69"/><stop offset=".73" stop-color="#e6734d"/><stop offset="1" stop-color="#e16b43"/></linearGradient><linearGradient id="linear-gradient-2" x1="16.37" y1="22.68" x2="26.96" y2="22.68" xlink:href="#linear-gradient"/></defs><g id="Capa_1-2"><rect class="cls-4" width="134" height="40"/><text class="cls-3" transform="translate(38.67 29.56)"><tspan x="0" y="0">Plata</tspan><tspan class="cls-5" x="37.14" y="0">f</tspan><tspan x="42.2" y="0">o</tspan><tspan class="cls-7" x="51.23" y="0">r</tspan><tspan x="57.04" y="0">ma</tspan></text><text class="cls-2" transform="translate(39.67 17.56)"><tspan class="cls-10" x="0" y="0">A</tspan><tspan class="cls-8" x="8.72" y="0">cc</tspan><tspan x="22.24" y="0">eso a</tspan></text><path class="cls-6" d="M32.4,24.81c2.66-5.93,0-12.88-5.92-15.54-5.92-2.66-12.88,0-15.54,5.92-2.66,5.93,0,12.88,5.92,15.54,5.92,2.66,12.88,0,15.54-5.92Z"/><g><path class="cls-9" d="M24.28,15.76c0-1.44-1.17-2.61-2.61-2.61s-2.61,1.17-2.61,2.61,1.17,2.61,2.61,2.61,2.61-1.17,2.61-2.61Z"/><path class="cls-1" d="M26.29,25.67c-.37,0-.67-.3-.67-.67,0-2.18-1.77-3.95-3.95-3.95s-3.95,1.77-3.95,3.95c0,.37-.3,.67-.67,.67s-.67-.3-.67-.67c0-2.92,2.38-5.29,5.29-5.29s5.29,2.38,5.29,5.29c0,.37-.3,.67-.67,.67Z"/></g></g></svg>