<?xml version="1.0" encoding="UTF-8"?><svg id="Capa_2" xmlns="http://www.w3.org/2000/svg" viewBox="0 0 90 83.22"><defs><style>.cls-1{fill:#ff8a00;}</style></defs><g id="Capa_1-2"><g><path class="cls-1" d="M78,28.42c1.27-1.1,1.01-2.43-.59-2.97l-5.69-1.9c-1.59-.53-2.39-2.25-1.78-3.81l2.19-5.58c.62-1.56-.24-2.62-1.9-2.35l-5.92,.96c-1.66,.27-3.16-.88-3.35-2.55l-.65-5.96c-.18-1.67-1.43-2.21-2.77-1.2l-4.79,3.6c-1.34,1.01-3.21,.69-4.15-.7l-3.35-4.98c-.94-1.39-2.3-1.29-3.01,.22l-2.57,5.42c-.72,1.52-2.52,2.1-4,1.3l-5.28-2.85c-1.48-.8-2.63-.08-2.57,1.6l.24,5.99c.07,1.68-1.25,3.03-2.93,3.01l-5.99-.07c-1.68-.02-2.37,1.15-1.53,2.61l3,5.2c.84,1.45,.3,3.27-1.2,4.03l-5.34,2.72c-1.5,.76-1.56,2.12-.14,3.02l5.07,3.21c1.42,.9,1.79,2.75,.82,4.13l-3.47,4.89c-.97,1.37-.4,2.6,1.28,2.74l5.98,.48c1.68,.14,2.86,1.61,2.64,3.27l-.79,5.94c-.22,1.66,.86,2.49,2.41,1.83l5.52-2.35c1.54-.66,3.28,.09,3.86,1.67l2.06,5.63c.58,1.58,1.92,1.8,2.98,.5l3.79-4.64c1.06-1.3,2.95-1.44,4.19-.31l4.44,4.03c1.24,1.13,2.54,.71,2.87-.94l1.2-5.88c.34-1.64,1.94-2.65,3.57-2.22l5.8,1.5c1.63,.42,2.58-.55,2.11-2.17l-1.67-5.76c-.47-1.61,.49-3.25,2.13-3.63l5.84-1.37c1.64-.38,2.02-1.68,.86-2.9l-4.15-4.33c-1.16-1.21-1.08-3.1,.2-4.2l4.54-3.92Z"/><path class="cls-1" d="M70.72,50.71l1.67,5.76c.47,1.61-.48,2.59-2.11,2.17l-5.8-1.51c-1.63-.42-3.23,.58-3.57,2.23l-1.03,5.05,16.97,18.82,1.34-11.47,11.81-.39-19.4-21.51c0,.28,.03,.57,.11,.86Z"/><path class="cls-1" d="M31.25,59.64l-5.52,2.35c-1.55,.66-2.63-.17-2.41-1.83l.8-5.94c.22-1.66-.96-3.14-2.64-3.27l-.86-.07L0,69.47l11.47,1.34,.39,11.81,23.35-21.05-.1-.26c-.58-1.58-2.31-2.33-3.86-1.67Z"/></g></g></svg>