<?xml version="1.0" encoding="UTF-8"?><svg id="Capa_2" xmlns="http://www.w3.org/2000/svg" viewBox="0 0 88 88"><defs><style>.cls-1{fill:#ff8a00;}</style></defs><g id="Capa_1-2"><g><path class="cls-1" d="M5.86,29.79c-1.54-.36-3.23,.07-4.45,1.28-1.87,1.88-1.88,4.93,0,6.82,.02,.02,.04,.02,.07,.04-.01,0-.02,.02-.03,.01l9.04,9.06,14.25-14.28-18.87-3.01s0,.05,0,.07Z"/><path class="cls-1" d="M57.85,81.36s.06,0,.09,.01l-2.86-18.1-14.18,14.21,8.68,8.71s.04-.04,.06-.06c.12,.16,.22,.32,.36,.46,1.87,1.88,4.92,1.87,6.8,0,1.41-1.42,1.75-3.48,1.05-5.22Z"/><path class="cls-1" d="M41.75,50.12l-3.96-3.96c-.67-.67-1.55-1.01-2.43-1.02-.88,0-1.76,.34-2.44,1.01l-7.28,7.29-1.1,1.11c-.67,.68-1,1.56-1.01,2.44,0,.89,.34,1.77,1.01,2.44l3.96,3.97c.67,.68,1.55,1.01,2.43,1.01,.89,0,1.76-.34,2.44-1.01l8.38-8.4c.67-.68,1.01-1.55,1.01-2.44,0-.88-.34-1.76-1.01-2.44Z"/><path class="cls-1" d="M77.25,37.47l.04,.04,10.28-30.91c.15-.33,.26-.67,.33-1.02h0c.29-1.49-.12-3.08-1.27-4.23-1.18-1.19-2.85-1.59-4.37-1.22h-.06c-.23,.07-.44,.14-.66,.24l-30.05,9.92c-1.05,.23-2.06,.65-2.87,1.47l-21.32,21.37-15.33,15.37-2.59,2.6c-2.27,2.27-2.27,5.97,0,8.25l3.52,3.53-.89,1.74,11.22,11.24,1.73-.89,3.62,3.63c2.27,2.28,5.96,2.28,8.23,0l2.59-2.6,15.26-15.29,21.4-21.44c.53-.53,.91-1.15,1.19-1.8Zm-42.82,27.01c-1.93,1.94-5.08,1.94-7.02,0l-3.96-3.97c-1.94-1.94-1.93-5.1,0-7.03l1.1-1.11,7.28-7.3c1.93-1.94,5.08-1.94,7.02,0l3.96,3.96c1.94,1.94,1.93,5.09,0,7.03l-8.38,8.4Zm15.01-26.04c-3.49-3.5-3.49-9.16,0-12.66,3.49-3.49,9.13-3.5,12.62,0,3.48,3.49,3.48,9.15,0,12.65-3.49,3.5-9.14,3.5-12.62,0Z"/></g></g></svg>