<?xml version="1.0" encoding="UTF-8"?><svg id="Capa_2" xmlns="http://www.w3.org/2000/svg" viewBox="0 0 43 43"><defs><style>.cls-1{fill:#fff;}.cls-2{fill:#0c1c4f;}</style></defs><g id="Capa_1-2"><g><path class="cls-1" d="M43,21.5C43,9.63,33.37,0,21.5,0S0,9.63,0,21.5c0,10.73,7.86,19.63,18.14,21.24v-15.02h-5.46v-6.21h5.46v-4.74c0-5.39,3.21-8.36,8.12-8.36,2.35,0,4.81,.42,4.81,.42v5.29h-2.71c-2.67,0-3.5,1.66-3.5,3.36v4.03h5.96l-.95,6.21h-5.01v15.02c10.28-1.61,18.14-10.51,18.14-21.24Z"/><path class="cls-2" d="M29.87,27.71l.95-6.21h-5.96v-4.03c0-1.7,.83-3.36,3.5-3.36h2.71v-5.29s-2.46-.42-4.81-.42c-4.91,0-8.12,2.98-8.12,8.36v4.74h-5.46v6.21h5.46v15.02c1.09,.17,2.22,.26,3.36,.26s2.26-.09,3.36-.26v-15.02h5.01Z"/></g></g></svg>