<?xml version="1.0" encoding="UTF-8"?><svg id="Capa_2" xmlns="http://www.w3.org/2000/svg" xmlns:xlink="http://www.w3.org/1999/xlink" viewBox="0 0 23.52 23.52"><defs><style>.cls-1{fill:url(#linear-gradient-2);}.cls-2{fill:url(#radial-gradient);}.cls-3{fill:url(#linear-gradient);}</style><radialGradient id="radial-gradient" cx="-2.97" cy="-11.91" fx="-2.97" fy="-11.91" r="39.24" gradientTransform="matrix(1, 0, 0, 1, 0, 0)" gradientUnits="userSpaceOnUse"><stop offset="0" stop-color="#e5dfd6"/><stop offset=".04" stop-color="#e7e1d9"/><stop offset=".37" stop-color="#f4f1ee"/><stop offset=".69" stop-color="#fcfbfa"/><stop offset="1" stop-color="#fff"/></radialGradient><linearGradient id="linear-gradient" x1="9.15" y1="7.52" x2="14.37" y2="7.52" gradientTransform="matrix(1, 0, 0, 1, 0, 0)" gradientUnits="userSpaceOnUse"><stop offset="0" stop-color="#ff9c7d"/><stop offset=".28" stop-color="#f48b69"/><stop offset=".73" stop-color="#e6734d"/><stop offset="1" stop-color="#e16b43"/></linearGradient><linearGradient id="linear-gradient-2" x1="6.47" y1="14.45" x2="17.06" y2="14.45" xlink:href="#linear-gradient"/></defs><g id="Capa_1-2"><path class="cls-2" d="M22.49,16.58c2.66-5.93,0-12.88-5.92-15.54-5.92-2.66-12.88,0-15.54,5.92-2.66,5.93,0,12.88,5.92,15.54,5.92,2.66,12.88,0,15.54-5.92Z"/><g><path class="cls-3" d="M14.37,7.52c0-1.44-1.17-2.61-2.61-2.61s-2.61,1.17-2.61,2.61,1.17,2.61,2.61,2.61,2.61-1.17,2.61-2.61Z"/><path class="cls-1" d="M16.38,17.43c-.37,0-.67-.3-.67-.67,0-2.18-1.77-3.95-3.95-3.95s-3.95,1.77-3.95,3.95c0,.37-.3,.67-.67,.67s-.67-.3-.67-.67c0-2.92,2.38-5.29,5.29-5.29s5.29,2.38,5.29,5.29c0,.37-.3,.67-.67,.67Z"/></g></g></svg>