<?xml version="1.0" encoding="UTF-8"?><svg id="Capa_2" xmlns="http://www.w3.org/2000/svg" viewBox="0 0 87.53 63.9"><defs><style>.cls-1{fill:#01194a;}</style></defs><g id="Capa_1-2"><g><polygon class="cls-1" points="0 13.46 0 56.74 26.02 35.1 0 13.46"/><path class="cls-1" d="M80.62,0H6.91C3.51,0,.66,2.49,.1,5.74l34.39,28.6,5.73,4.77c1.95,1.62,5.13,1.62,7.08,0l6.02-5.01L87.43,5.74c-.56-3.25-3.41-5.74-6.81-5.74Z"/><polygon class="cls-1" points="87.53 56.74 87.53 13.46 61.51 35.1 87.53 56.74"/><path class="cls-1" d="M51.96,43.04l-4.66,3.87c-1.95,1.62-5.14,1.62-7.08,0l-6.01-4.99-3.51-2.92L2.6,62.38c1.18,.95,2.68,1.52,4.31,1.52H80.62c1.63,0,3.12-.57,4.31-1.52l-28.11-23.38-4.86,4.04Z"/></g></g></svg>