<?xml version="1.0" encoding="UTF-8"?><svg id="Capa_2" xmlns="http://www.w3.org/2000/svg" viewBox="0 0 83.57 83.94"><defs><style>.cls-1{fill:#01194a;fill-rule:evenodd;}</style></defs><g id="Capa_1-2"><g id="WA_Logo"><path class="cls-1" d="M71.39,12.2C63.54,4.34,53.09,0,41.96,0,19.02,0,.36,18.66,.35,41.59c0,7.33,1.91,14.49,5.55,20.8L0,83.94l22.06-5.78c6.08,3.31,12.92,5.06,19.88,5.06h.02c22.93,0,41.6-18.66,41.61-41.6,0-11.11-4.32-21.57-12.18-29.43Zm-29.43,64h-.01c-6.21,0-12.29-1.67-17.6-4.82l-1.26-.75-13.09,3.43,3.49-12.76-.82-1.31c-3.46-5.5-5.29-11.87-5.29-18.4,0-19.06,15.52-34.57,34.6-34.57,9.24,0,17.92,3.6,24.45,10.14,6.53,6.53,10.12,15.22,10.12,24.46,0,19.06-15.52,34.57-34.58,34.57Zm18.97-25.89c-1.04-.52-6.15-3.03-7.1-3.38-.95-.35-1.65-.52-2.34,.52-.69,1.04-2.69,3.38-3.29,4.08-.61,.69-1.21,.78-2.25,.26-1.04-.52-4.39-1.62-8.36-5.16-3.09-2.76-5.18-6.16-5.78-7.2s-.06-1.6,.46-2.12c.47-.47,1.04-1.21,1.56-1.82s.69-1.04,1.04-1.73c.35-.69,.17-1.3-.09-1.82-.26-.52-2.34-5.64-3.21-7.72-.84-2.03-1.7-1.75-2.34-1.78-.61-.03-1.3-.04-1.99-.04s-1.82,.26-2.77,1.3c-.95,1.04-3.64,3.56-3.64,8.67s3.73,10.06,4.25,10.75,7.33,11.19,17.76,15.69c2.48,1.07,4.42,1.71,5.93,2.19,2.49,.79,4.76,.68,6.55,.41,2-.3,6.15-2.51,7.02-4.94,.87-2.43,.87-4.51,.61-4.94-.26-.43-.95-.69-1.99-1.21Z"/></g></g></svg>