<?xml version="1.0" encoding="UTF-8"?><svg id="Capa_2" xmlns="http://www.w3.org/2000/svg" viewBox="0 0 70.82 70.82"><defs><style>.cls-1{fill:#01194a;}</style></defs><g id="Capa_1-2"><g><path class="cls-1" d="M26.54,25.04c.7-.7,1.7-1.91,2.22-3.19,1.79-4.41,.98-5.26,.98-5.26-1.18-2.54-3.71-5.95-7.05-9.29C19.35,3.96,15.94,1.44,13.4,.26c0,0-4.14-1.27-7.24,1.84-.02,0,0,0-.03,.03,0,0-.01,0-.02,0h0c-.43,.43-.82,.86-1.19,1.29L26.54,25.04Z"/><path class="cls-1" d="M70.56,57.42c-1.18-2.54-3.7-5.94-7.05-9.29-3.34-3.34-6.74-5.87-9.29-7.05,0,0-.85-.82-5.26,.98-1.27,.52-2.49,1.52-3.19,2.21l21.61,21.61c.43-.37,.86-.77,1.29-1.19h0s0,0,0-.01c.03-.03,.04-.02,.03-.03,3.11-3.1,1.84-7.23,1.84-7.23Z"/><path class="cls-1" d="M43.47,47.38c-.68,.92-1.76,1.3-3.06,1.3-3.94,0-9.82-3.52-12.29-5.99-3.28-3.28-8.41-12.58-4.69-15.35,.21-.13,.42-.26,.64-.4L3.04,5.91C-.13,10.72,0,14.56,0,14.56,0,14.56-.55,32.02,19.13,51.69c18.63,18.63,35.28,19.13,36.99,19.13h.21c.52,0,4.14-.11,8.58-3.04l-21.03-21.03c-.14,.21-.28,.43-.4,.64Z"/></g></g></svg>