<?xml version="1.0" encoding="UTF-8"?><svg id="Capa_2" xmlns="http://www.w3.org/2000/svg" viewBox="0 0 43 43"><defs><style>.cls-1{fill:#fff;}.cls-2{fill:#0c1c4f;}</style></defs><g id="Capa_1-2"><g><circle class="cls-1" cx="21.5" cy="21.5" r="21.5"/><g><path class="cls-2" d="M21.5,10.4c3.61,0,4.04,.01,5.47,.08,1.32,.06,2.04,.28,2.51,.47,.63,.25,1.08,.54,1.56,1.01,.47,.47,.77,.92,1.01,1.56,.19,.48,.41,1.19,.47,2.51,.07,1.43,.08,1.86,.08,5.47s-.01,4.04-.08,5.47c-.06,1.32-.28,2.04-.47,2.51-.25,.63-.54,1.08-1.01,1.56-.47,.47-.92,.77-1.56,1.01-.48,.19-1.19,.41-2.51,.47-1.43,.07-1.86,.08-5.47,.08s-4.04-.01-5.47-.08c-1.32-.06-2.04-.28-2.51-.47-.63-.25-1.08-.54-1.56-1.01-.47-.47-.77-.92-1.01-1.56-.19-.48-.41-1.19-.47-2.51-.07-1.43-.08-1.86-.08-5.47s.01-4.04,.08-5.47c.06-1.32,.28-2.04,.47-2.51,.25-.63,.54-1.08,1.01-1.56,.47-.47,.92-.77,1.56-1.01,.48-.19,1.19-.41,2.51-.47,1.43-.07,1.86-.08,5.47-.08m0-2.44c-3.68,0-4.14,.02-5.58,.08-1.44,.07-2.42,.29-3.29,.63-.89,.35-1.65,.81-2.4,1.56-.75,.75-1.22,1.51-1.56,2.4-.33,.86-.56,1.85-.63,3.29-.07,1.44-.08,1.9-.08,5.58s.02,4.14,.08,5.58c.07,1.44,.29,2.42,.63,3.29,.35,.89,.81,1.65,1.56,2.4,.75,.75,1.51,1.22,2.4,1.56,.86,.33,1.85,.56,3.29,.63,1.44,.07,1.9,.08,5.58,.08s4.14-.02,5.58-.08c1.44-.07,2.42-.29,3.29-.63,.89-.35,1.65-.81,2.4-1.56,.75-.75,1.22-1.51,1.56-2.4,.33-.86,.56-1.85,.63-3.29,.07-1.44,.08-1.9,.08-5.58s-.02-4.14-.08-5.58c-.07-1.44-.29-2.42-.63-3.29-.35-.89-.81-1.65-1.56-2.4-.75-.75-1.51-1.22-2.4-1.56-.86-.33-1.85-.56-3.29-.63-1.44-.07-1.9-.08-5.58-.08h0Z"/><path class="cls-2" d="M21.5,14.55c-3.84,0-6.95,3.11-6.95,6.95s3.11,6.95,6.95,6.95,6.95-3.11,6.95-6.95-3.11-6.95-6.95-6.95Zm0,11.46c-2.49,0-4.51-2.02-4.51-4.51s2.02-4.51,4.51-4.51,4.51,2.02,4.51,4.51-2.02,4.51-4.51,4.51Z"/><circle class="cls-2" cx="28.73" cy="14.27" r="1.62"/></g></g></g></svg>