<?xml version="1.0" encoding="UTF-8"?><svg id="Capa_2" xmlns="http://www.w3.org/2000/svg" viewBox="0 0 81 87.52"><defs><style>.cls-1{fill:#ff8a00;}</style></defs><g id="Capa_1-2"><path class="cls-1" d="M67.46,40.27l.79-1.93c5.81-14.18-1.01-30.45-15.2-36.26-7.97-3.26-16.59-2.55-23.66,1.22-5.51,2.94-10.07,7.74-12.61,13.96l-4.93,12.03,8.01,3.28,4.93-12.03c1.64-4.01,4.51-7.14,7.98-9.19,4.99-2.94,11.24-3.62,17-1.26,9.77,4,14.46,15.2,10.46,24.97l-2.14,5.22H0v47.25H81V40.27h-13.54Zm-21.38,34.85h-11.15l2.96-11.6c-2.13-.99-3.61-3.14-3.61-5.64,0-3.44,2.78-6.22,6.22-6.22s6.23,2.78,6.23,6.22c0,2.5-1.49,4.65-3.62,5.64l2.96,11.6Z"/></g></svg>