<?xml version="1.0" encoding="UTF-8"?><svg id="Capa_2" xmlns="http://www.w3.org/2000/svg" viewBox="0 0 82 82"><defs><style>.cls-1{fill:#ff8a00;}</style></defs><g id="Capa_1-2"><path class="cls-1" d="M60.52,46.06c-1.12-.8-2.28-1.33-3.48-1.6-.71-.14-1.45-.19-2.21-.14-.72,.04-1.41,.13-2.06,.28-.49,.14-.98,.31-1.47,.53-1.46,.64-2.71,1.45-3.75,2.43-.98,1.03-1.79,2.29-2.43,3.75-.22,.49-.39,.98-.53,1.47-.15,.65-.24,1.34-.28,2.06-.04,.76,0,1.5,.14,2.21,.27,1.2,.8,2.36,1.6,3.48,.31,.44,.65,.83,1.01,1.19,1.61,1.6,3.67,2.46,6.04,2.73,.71,.08,1.45,.13,2.12,.36,.41,.14,.73,.33,.97,.56,.53,.53,.61,1.29,.2,2.18-.25,.55-.62,1.08-1.04,1.51l-.22,.23c-.31,.31-.51,.51-.56,.56-.25,.25-.49,.49-.73,.73l-.24,.23c-.84,.85-1.69,1.69-2.54,2.53-1.82,1.83-3.65,3.65-5.48,5.47-.6,.6-1.2,1.2-1.8,1.8-.28,.28-.57,.51-.86,.7-.14,.1-.28,.18-.41,.25-1.57,.79-3.32,.47-4.74-.95-.43-.43-.85-.85-1.27-1.27-2.42-2.42-4.84-4.85-7.27-7.27-.69-.69-1.37-1.37-2.06-2.05-.49-.49-1.01-.95-1.57-1.37-.46-.35-.93-.61-1.4-.78-1.69-.59-3.32-.16-4.38,1.06-.31,.38-.56,.84-.75,1.36-.27,.74-.37,1.56-.47,2.35-.39,3.01-2.07,5.48-4.48,6.62-.6,.29-1.24,.5-1.91,.62-.64,.11-1.28,.14-1.91,.08-2.13-.11-3.96-1.05-5.49-2.61-.13-.13-.17-.17-.2-.2-1.56-1.52-2.5-3.36-2.61-5.49-.05-.63-.03-1.27,.08-1.91,.12-.67,.33-1.32,.62-1.91,1.14-2.42,3.61-4.09,6.62-4.48,.79-.1,1.61-.2,2.35-.47,.56-.21,1.04-.48,1.44-.82,1.16-1.05,1.57-2.61,1.03-4.19-.22-.59-.48-1.06-.83-1.52-.42-.55-.88-1.08-1.37-1.57-.68-.68-1.36-1.37-2.05-2.05-2.16-2.16-4.31-4.31-6.47-6.47l-.8-.8c-.42-.42-.84-.84-1.22-1.22-1.47-1.47-1.79-3.22-1-4.79,.07-.14,.16-.27,.25-.4,.2-.31,.43-.6,.71-.87,.6-.6,1.2-1.2,1.8-1.8,1.82-1.83,3.65-3.65,5.47-5.48,.84-.85,1.69-1.69,2.53-2.54l.23-.24c.24-.24,.48-.47,.72-.71,.06-.06,.26-.26,.58-.58l.23-.22c.43-.42,.96-.78,1.51-1.04,.89-.41,1.65-.33,2.18,.2,.24,.23,.43,.56,.56,.97,.22,.67,.28,1.41,.36,2.12,.27,2.37,1.13,4.43,2.73,6.04,.36,.36,.76,.69,1.19,1.01,1.12,.8,2.28,1.33,3.48,1.6,.71,.14,1.45,.19,2.21,.14,.72-.04,1.41-.13,2.06-.28,.49-.14,.98-.31,1.47-.53,1.46-.64,2.71-1.45,3.75-2.43,.98-1.03,1.79-2.29,2.43-3.75,.22-.49,.39-.98,.53-1.47,.15-.65,.24-1.34,.28-2.06,.04-.76,0-1.5-.14-2.21-.27-1.2-.8-2.36-1.6-3.48-.31-.44-.65-.83-1.01-1.19-1.61-1.6-3.67-2.46-6.04-2.73-.71-.08-1.45-.13-2.12-.36-.41-.14-.73-.33-.97-.56-.53-.53-.61-1.29-.2-2.18,.25-.55,.62-1.08,1.04-1.51l.22-.23c.31-.31,.51-.51,.56-.56,.25-.25,.49-.49,.73-.73l.24-.23c.84-.85,1.69-1.69,2.54-2.53,1.82-1.83,3.65-3.65,5.48-5.47,.6-.6,1.2-1.2,1.8-1.8,.28-.28,.57-.51,.86-.7,.14-.1,.28-.18,.41-.25,1.57-.79,3.32-.47,4.74,.95,.43,.43,.85,.85,1.27,1.27,2.42,2.42,4.84,4.85,7.27,7.27,.69,.69,1.37,1.37,2.06,2.05,.49,.49,1.01,.95,1.57,1.37,.46,.35,.93,.61,1.4,.78,1.69,.59,3.32,.16,4.38-1.06,.31-.38,.56-.84,.75-1.36,.27-.74,.37-1.56,.47-2.35,.39-3.01,2.07-5.48,4.48-6.62,.6-.29,1.24-.5,1.91-.62,.64-.11,1.28-.14,1.91-.08,2.13,.11,3.96,1.05,5.49,2.61,.13,.13,.17,.17,.2,.2,1.56,1.52,2.5,3.36,2.61,5.49,.05,.63,.03,1.27-.08,1.91-.12,.67-.33,1.32-.62,1.91-1.14,2.42-3.61,4.09-6.62,4.48-.79,.1-1.61,.2-2.35,.47-.56,.21-1.04,.48-1.44,.82-1.16,1.05-1.57,2.61-1.03,4.19,.22,.59,.48,1.06,.83,1.52,.42,.55,.88,1.08,1.37,1.57,.68,.68,1.36,1.37,2.05,2.05,2.42,2.43,4.85,4.85,7.27,7.27,.42,.42,.84,.84,1.22,1.22,1.47,1.47,1.79,3.22,1,4.79-.07,.14-.16,.27-.25,.4-.2,.31-.43,.6-.71,.87-.6,.6-1.2,1.2-1.8,1.8-1.82,1.83-3.65,3.65-5.47,5.48-.84,.85-1.69,1.69-2.53,2.54l-.23,.24c-.24,.24-.48,.47-.72,.71-.06,.06-.26,.26-.58,.58l-.23,.22c-.43,.42-.96,.78-1.51,1.04-.89,.41-1.65,.33-2.18-.2-.24-.23-.43-.56-.56-.97-.22-.67-.28-1.41-.36-2.12-.27-2.37-1.13-4.43-2.73-6.04-.36-.36-.76-.7-1.19-1.01Z"/></g></svg>