<?xml version="1.0" encoding="UTF-8"?><svg id="Capa_2" xmlns="http://www.w3.org/2000/svg" viewBox="0 0 192 54.56"><defs><style>.cls-1{fill:#ff8a00;}</style></defs><g id="Capa_1-2"><g><path class="cls-1" d="M45.56,38.07c0,10.04-9.22,16.49-22.78,16.49S0,48.11,0,38.07c0-5.4,2.77-9.52,7.49-12.22-3.52-2.47-5.62-6.07-5.62-10.57C1.87,6,10.42,0,22.78,0s20.91,6,20.91,15.29c0,4.5-2.1,8.09-5.62,10.57,4.72,2.7,7.49,6.82,7.49,12.22Zm-14.91-.45c0-4.05-3.15-6.52-7.87-6.52s-7.87,2.47-7.87,6.52,3.15,6.52,7.87,6.52,7.87-2.47,7.87-6.52ZM16.56,15.96c0,3.45,2.47,5.47,6.22,5.47s6.29-2.02,6.29-5.47-2.62-5.55-6.29-5.55-6.22,2.02-6.22,5.55Z"/><path class="cls-1" d="M50.44,27.28C50.44,9.97,60.18,0,73.59,0s23.08,9.97,23.08,27.28-9.74,27.28-23.08,27.28-23.16-9.97-23.16-27.28Zm31.33,0c0-11.02-3.45-15.14-8.17-15.14s-8.24,4.12-8.24,15.14,3.45,15.14,8.24,15.14,8.17-4.12,8.17-15.14Z"/><path class="cls-1" d="M101.77,27.28c0-17.31,9.74-27.28,23.16-27.28s23.08,9.97,23.08,27.28-9.74,27.28-23.08,27.28-23.16-9.97-23.16-27.28Zm31.33,0c0-11.02-3.45-15.14-8.17-15.14s-8.24,4.12-8.24,15.14,3.45,15.14,8.24,15.14,8.17-4.12,8.17-15.14Z"/><path class="cls-1" d="M192,32.75h-12.67v12.36h-11.54v-12.36h-12.74v-10.94h12.74V9.44h11.54v12.36h12.67v10.94Z"/></g></g></svg>