<?xml version="1.0" encoding="UTF-8"?><svg id="Capa_2" xmlns="http://www.w3.org/2000/svg" viewBox="0 0 75 109.7"><defs><style>.cls-1{fill:#01194a;}</style></defs><g id="Capa_1-2"><g><polygon class="cls-1" points="24.95 90.14 50.84 85.15 50.96 81.61 24.82 86.64 24.95 90.14"/><polygon class="cls-1" points="25.18 96.04 50.65 91.14 50.76 87.59 25.05 92.55 25.18 96.04"/><path class="cls-1" d="M25.28,98.6s.08,.12,.15,.12h24.85c.06,0,.13-.08,.13-.1l.17-5.04-25.29,4.87v.15Z"/><polygon class="cls-1" points="42.31 79.54 42.34 78.73 32.65 78.73 29.97 78.73 24.52 78.73 24.73 84.24 51.04 79.17 51.06 78.73 45.02 78.73 44.99 79.54 42.31 79.54"/><path class="cls-1" d="M37.5,0C16.82,0,0,16.82,0,37.5c0,13.55,7.23,25.45,18.03,32.04l1.11,27.71c.13,3.19,2.58,5.84,5.66,6.34,1.16,3.49,6.41,6.12,12.69,6.12s11.46-2.59,12.67-6.04c3.41-.17,6.22-2.99,6.34-6.43l.96-28.01c10.52-6.65,17.53-18.38,17.53-31.72C75,16.82,58.18,0,37.5,0Zm12.9,98.62s-.06,.1-.13,.1H25.42c-.07,0-.15-.09-.15-.12v-.15l25.29-4.87-.17,5.04Zm.25-7.48l-25.47,4.91-.13-3.49,25.72-4.95-.12,3.54Zm.2-5.99l-25.89,4.99-.13-3.5,26.14-5.03-.12,3.54Zm6.11-43.72l-11.29,20.24-.64,17.06h6.04l-.02,.44-26.31,5.07-.21-5.51h5.46l-.64-17.06-11.3-20.24c-.29-.53-.18-1.16,.22-1.57,.08-.09,.17-.16,.26-.23,.01,0,.02-.02,.03-.02,0,0,.01,0,.02,0,.2-.13,.43-.22,.69-.22H55.41c.13,0,.25,.04,.37,.08,.22,0,.44,.03,.65,.15,.65,.36,.88,1.18,.51,1.82Z"/><path class="cls-1" d="M43,61.25c0-.21,.06-.42,.17-.6l7.36-13.19h-.01l.84-1.49,2.19-3.93H21.44l2.2,3.94h0l.82,1.45h-.02l7.38,13.23c.1,.18,.16,.39,.17,.6l.66,17.48h9.69l.66-17.48Z"/></g></g></svg>