<?xml version="1.0" encoding="UTF-8"?><svg id="Capa_2" xmlns="http://www.w3.org/2000/svg" viewBox="0 0 86 86"><defs><style>.cls-1{fill:#ff8a00;}</style></defs><g id="Capa_1-2"><path class="cls-1" d="M60.33,21.13l-25.03,11.44c-1.21,.55-2.18,1.52-2.73,2.73l-11.44,25.03c-1.32,2.89,1.65,5.86,4.54,4.54l25.03-11.44c1.21-.55,2.18-1.52,2.73-2.73l11.44-25.03c1.32-2.89-1.65-5.86-4.54-4.54h0Zm-13.41,25.79c-2.16,2.16-5.67,2.16-7.83,0s-2.16-5.67,0-7.83c2.16-2.16,5.67-2.16,7.83,0s2.16,5.67,0,7.83ZM43,0C19.25,0,0,19.25,0,43s19.25,43,43,43,43-19.25,43-43S66.75,0,43,0Zm0,77.68c-19.12,0-34.68-15.56-34.68-34.68S23.88,8.32,43,8.32s34.68,15.56,34.68,34.68-15.56,34.68-34.68,34.68Z"/></g></svg>