<?xml version="1.0" encoding="UTF-8"?><svg id="Capa_2" xmlns="http://www.w3.org/2000/svg" viewBox="0 0 70 81.29"><defs><style>.cls-1{fill:#fff;}.cls-2{fill:none;}.cls-3{fill:#ff8a00;}</style></defs><g id="Capa_1-2"><g><path class="cls-2" d="M14.09,19.35l-.68-8.03c-2.24-.5-5.78-.61-7.02,.72-.93,.99-.87,3.24,.16,6.34,1.4,4.2,5.46,6.55,9.36,7.87-.97-2.13-1.61-4.44-1.82-6.89Z"/><path class="cls-2" d="M56.59,11.31l-.68,8.03c-.21,2.45-.85,4.77-1.82,6.89,3.9-1.32,7.96-3.67,9.36-7.87,1.03-3.1,1.09-5.35,.16-6.34-1.24-1.32-4.77-1.22-7.02-.72Z"/><path class="cls-3" d="M67.8,8.1c-2.95-3.14-7.8-3.08-10.7-2.7l.46-5.4H12.44l.46,5.4c-2.9-.38-7.75-.44-10.7,2.7C-.3,10.77-.67,14.84,1.11,20.18c3.22,9.65,14.54,12.38,20.07,13.15,3.71,3.25,8.55,5.22,13.82,5.22s10.12-1.97,13.82-5.22c5.53-.77,16.85-3.5,20.07-13.15,1.78-5.34,1.41-9.41-1.1-12.09ZM6.55,18.37c-1.03-3.1-1.09-5.35-.16-6.34,1.24-1.33,4.77-1.22,7.02-.72l.68,8.03c.21,2.45,.85,4.76,1.82,6.89-3.9-1.32-7.96-3.67-9.36-7.87Zm36.41,11.19h-14.18v-3.39h5.04V11.34l-4.68,2.81v-3.71l6.4-3.88h2.42V26.17h5.01v3.39Zm20.48-11.19c-1.4,4.2-5.46,6.55-9.36,7.87,.97-2.13,1.61-4.44,1.82-6.89l.68-8.03c2.24-.5,5.78-.61,7.02,.72,.93,.99,.87,3.24-.16,6.34Z"/><path class="cls-3" d="M35,41.06c-1.43,0-2.84-.08-4.2-.23v17.23h8.4v-17.23c-1.36,.15-2.77,.23-4.2,.23Z"/><path class="cls-3" d="M47.89,60.75H21.18c-1.46,0-2.7,1.04-2.96,2.47l-3.28,18.06H54.13l-3.28-18.06c-.26-1.43-1.51-2.47-2.96-2.47Z"/><polygon class="cls-1" points="37.96 6.56 35.54 6.56 29.14 10.44 29.14 14.15 33.83 11.34 33.83 26.17 28.79 26.17 28.79 29.56 42.97 29.56 42.97 26.17 37.96 26.17 37.96 6.56"/></g></g></svg>