<?xml version="1.0" encoding="UTF-8"?><svg id="Capa_2" xmlns="http://www.w3.org/2000/svg" viewBox="0 0 79.2 86.71"><defs><style>.cls-1{fill:#ff8a00;}</style></defs><g id="Capa_1-2"><path class="cls-1" d="M34.68,0c17.64,0,32.19,13.16,34.4,30.2l9.75,15.34c.64,1.01,.51,2.51-.98,3.16l-8.49,3.63v12.7c0,4.79-3.88,8.67-8.67,8.67h-8.67v13.01H13.01v-16.02c0-5.12-1.89-9.96-5.39-14.33C2.85,50.43,0,42.89,0,34.68,0,15.53,15.53,0,34.68,0Zm-2.3,24.98c-2.97-2.97-7.77-2.97-10.73,0-2.97,2.96-2.97,7.76,0,10.73l13.03,13.03,13.03-13.03c2.97-2.96,2.97-7.76,0-10.73-2.96-2.97-7.76-2.97-10.73,0l-2.3,2.3-2.3-2.3Z"/></g></svg>