<?xml version="1.0" encoding="UTF-8"?><svg id="Capa_2" xmlns="http://www.w3.org/2000/svg" viewBox="0 0 144 110.01"><defs><style>.cls-1{fill:#01194a;}</style></defs><g id="Capa_1-2"><g><polygon class="cls-1" points="18.35 87.29 8.59 95.65 135.51 95.65 126.08 87.29 123.05 87.29 131.04 94.2 12.96 94.2 21.23 87.29 18.35 87.29"/><path class="cls-1" d="M7.56,110.01H136.44c4.17,0,7.56-3.38,7.56-7.55,0-3.05-1.81-5.65-4.4-6.85l-10.99-9.74c4.48-.49,7.98-4.23,7.98-8.85V8.95c0-4.94-4-8.95-8.95-8.95H16.36C11.41,0,7.41,4.01,7.41,8.95V77.01c0,4.74,3.69,8.57,8.34,8.89l-11.32,9.69c-1.31,.59-2.42,1.55-3.2,2.73l-.1,.08h.05c-.74,1.17-1.19,2.56-1.19,4.05,0,4.18,3.39,7.55,7.56,7.55Zm2.95-5.08c-.82,0-1.48-.67-1.48-1.49s.66-1.49,1.48-1.49,1.49,.67,1.49,1.49-.67,1.49-1.49,1.49Zm5.93,0c-.82,0-1.49-.67-1.49-1.49s.67-1.49,1.49-1.49,1.49,.67,1.49,1.49-.67,1.49-1.49,1.49Zm6.34,0c-.82,0-1.48-.67-1.48-1.49s.66-1.49,1.48-1.49,1.49,.67,1.49,1.49-.66,1.49-1.49,1.49Zm54.57,0h-12.59c-.81,0-1.48-.67-1.48-1.49s.66-1.49,1.48-1.49h12.59c.82,0,1.5,.67,1.5,1.49s-.68,1.49-1.5,1.49ZM71.99,5.3c.92,0,1.64,.74,1.64,1.64s-.73,1.65-1.64,1.65-1.63-.74-1.63-1.65,.72-1.64,1.63-1.64ZM15.55,72.61V13.35h112.9v59.26H15.55Zm2.81,14.69h2.88l-8.27,6.91h118.08l-7.99-6.91h3.03l9.43,8.36H8.59l9.76-8.36Z"/></g></g></svg>