<?xml version="1.0" encoding="UTF-8"?><svg id="Capa_2" xmlns="http://www.w3.org/2000/svg" viewBox="0 0 88 87"><defs><style>.cls-1{fill:#ff8a00;}</style></defs><g id="Capa_1-2"><g><path class="cls-1" d="M0,43.5c0,24.02,19.7,43.5,44,43.5s44-19.48,44-43.5S68.3,0,44,0,0,19.48,0,43.5Zm77.98,0c0,18.55-15.21,33.59-33.98,33.59S10.02,62.05,10.02,43.5,25.23,9.91,44,9.91s33.98,15.04,33.98,33.59Z"/><path class="cls-1" d="M42.44,17.85v25.49c0,.75,.61,1.35,1.37,1.35s1.37-.61,1.37-1.35V17.85c0-.75-.61-1.35-1.37-1.35s-1.37,.61-1.37,1.35Z"/><path class="cls-1" d="M19.84,53.21c-.7,.29-1.22,.63-1.16,.76,.06,.13,.67,0,1.36-.28l23.8-9.8c.7-.29,1.22-.63,1.16-.76-.06-.13-.67,0-1.36,.28l-23.8,9.8Z"/><path class="cls-1" d="M44.46,41.55c-1.11,0-2,.88-2,1.98s.9,1.98,2,1.98h16.9c1.1,0,2-.89,2-1.98s-.9-1.98-2-1.98h-16.9Z"/><path class="cls-1" d="M40.8,43.28c0,1.86,1.52,3.37,3.41,3.37s3.41-1.51,3.41-3.37-1.52-3.37-3.41-3.37-3.41,1.51-3.41,3.37Z"/></g></g></svg>