<?xml version="1.0" encoding="UTF-8"?><svg id="Capa_2" xmlns="http://www.w3.org/2000/svg" viewBox="0 0 43 43"><defs><style>.cls-1{fill:#fff;}.cls-2{fill:#0c1c4f;fill-rule:evenodd;}</style></defs><g id="Capa_1-2"><g><circle class="cls-1" cx="21.5" cy="21.5" r="21.5"/><g id="WA_Logo"><path class="cls-2" d="M31.84,11.42c-2.58-2.58-6-4-9.65-4-7.52,0-13.64,6.12-13.64,13.63,0,2.4,.63,4.75,1.82,6.82l-1.93,7.07,7.23-1.9c1.99,1.09,4.23,1.66,6.52,1.66h0c7.52,0,13.64-6.12,13.64-13.63,0-3.64-1.42-7.07-3.99-9.65Zm-9.65,20.98h0c-2.03,0-4.03-.55-5.77-1.58l-.41-.25-4.29,1.12,1.15-4.18-.27-.43c-1.13-1.8-1.73-3.89-1.73-6.03,0-6.25,5.09-11.33,11.34-11.33,3.03,0,5.87,1.18,8.01,3.32s3.32,4.99,3.32,8.02c0,6.25-5.09,11.33-11.34,11.33Zm6.22-8.49c-.34-.17-2.02-1-2.33-1.11-.31-.11-.54-.17-.77,.17-.23,.34-.88,1.11-1.08,1.34-.2,.23-.4,.26-.74,.08-.34-.17-1.44-.53-2.74-1.69-1.01-.9-1.7-2.02-1.9-2.36-.2-.34-.02-.53,.15-.7,.15-.15,.34-.4,.51-.6,.17-.2,.23-.34,.34-.57,.11-.23,.06-.43-.03-.6s-.77-1.85-1.05-2.53c-.28-.66-.56-.57-.77-.58-.2-.01-.43-.01-.65-.01s-.6,.09-.91,.43c-.31,.34-1.19,1.17-1.19,2.84s1.22,3.3,1.39,3.52c.17,.23,2.4,3.67,5.82,5.14,.81,.35,1.45,.56,1.94,.72,.82,.26,1.56,.22,2.15,.13,.65-.1,2.02-.82,2.3-1.62,.28-.8,.28-1.48,.2-1.62-.09-.14-.31-.23-.65-.4Z"/></g></g></g></svg>