<?xml version="1.0" encoding="UTF-8"?><svg id="Capa_2" xmlns="http://www.w3.org/2000/svg" viewBox="0 0 43 43"><defs><style>.cls-1{fill:#fff;}.cls-2{fill:#0c1c4f;}</style></defs><g id="Capa_1-2"><g><circle class="cls-1" cx="21.5" cy="21.5" r="21.5"/><path class="cls-2" d="M35.23,14.6c-.33-1.23-1.3-2.2-2.53-2.53-2.24-.6-11.2-.6-11.2-.6,0,0-8.96,0-11.2,.6-1.23,.33-2.2,1.3-2.53,2.53-.6,2.24-.6,6.9-.6,6.9,0,0,0,4.66,.6,6.9,.33,1.23,1.3,2.2,2.53,2.53,2.24,.6,11.2,.6,11.2,.6,0,0,8.96,0,11.2-.6,1.23-.33,2.2-1.3,2.53-2.53,.6-2.24,.6-6.9,.6-6.9,0,0,0-4.66-.6-6.9Zm-16.6,11.2v-8.6l7.45,4.3-7.45,4.3Z"/></g></g></svg>